<?xml version="1.0" encoding="utf-8"?>
<!-- Uploaded to: SVG Repo, www.svgrepo.com, Generator: SVG Repo Mixer Tools -->
<svg width="40px" height="80px" viewBox="0 0 1024 1024" class="icon"  version="1.1" xmlns="http://www.w3.org/2000/svg"><path d="M623.104 470.016c8.192-29.696 13.312-59.904 17.408-90.624 4.096-32.768 6.144-66.048 6.656-99.328 0.512-28.672 2.048-59.904-6.144-87.552-15.36-53.248-69.12-87.04-78.848-142.336-1.024-6.144-7.68-6.656-11.776-4.096-2.048 0-4.096 0.512-5.632 2.56-36.352 40.448-73.216 82.432-89.6 135.168-17.92 58.368-18.432 124.416-18.944 184.832-0.512 62.464 3.584 124.928 13.824 186.88 10.24 62.976 30.208 123.392 45.056 184.832 17.408 71.68 21.504 144.896 25.088 218.112 0 2.56 1.024 4.096 2.56 5.632 1.536 7.168 14.336 6.144 15.36-2.56 8.704-66.56 18.944-133.12 29.184-199.68 9.728-65.024 15.36-131.584 28.672-196.096 7.68-33.28 18.944-64 27.136-95.744z m-68.096 274.432c-5.632 38.4-11.776 76.8-17.408 115.2-1.024-101.376-1.024-203.264 0.512-304.64 20.48-5.632 35.84-27.136 43.52-45.568 4.096-9.216-11.264-13.312-15.36-4.096-4.608 11.264-15.36 27.136-28.16 33.28 1.024-51.2 2.048-102.4 3.584-153.6 24.064-5.12 44.544-18.944 58.88-39.424 5.632-8.192-7.68-16.384-13.824-8.192-10.752 15.872-26.624 26.624-44.544 31.232 1.536-41.984 2.56-83.456 4.608-125.44 22.528 0 38.912-12.8 51.712-32.768 5.632-8.704-8.192-16.384-13.824-8.192-9.216 13.824-20.992 24.576-37.376 25.088 1.536-40.96 3.584-81.408 6.144-122.368 0.512-10.24-15.36-10.24-15.872 0-2.048 42.496-4.096 84.992-6.144 126.976-1.024 2.048-1.024 4.096-0.512 6.144-0.512 13.312-1.024 27.136-1.536 40.448-1.024-0.512-2.048-0.512-3.072-0.512-14.336-0.512-28.672-19.456-36.864-29.696-6.144-8.192-19.456 0-13.824 8.192 11.776 15.872 28.672 36.864 50.176 37.888 1.024 0 1.536 0 2.56-0.512-2.048 50.688-3.584 101.888-4.608 152.576-17.92-5.12-32.768-16.896-40.96-34.304-4.608-9.216-17.92-1.024-13.824 8.192 10.24 21.504 30.72 37.376 54.272 42.496-2.56 107.52-3.584 214.528-3.072 322.048-0.512-3.072-1.024-5.632-1.536-8.704-10.752-59.392-31.232-116.736-44.032-176.128-26.624-120.32-32.256-250.88-13.312-372.736 5.12-32.768 15.36-63.488 32.768-91.648 15.872-25.088 35.328-47.616 55.296-70.144 12.288 40.96 46.592 70.144 66.56 107.52 14.848 27.648 14.848 57.344 14.848 88.064 0 33.28-1.536 66.56-4.608 99.328-3.584 33.28-9.216 66.048-17.408 98.816-7.68 30.72-18.432 60.416-25.6 91.648-13.312 63.488-18.432 129.536-28.16 193.536zM989.696 135.168c-1.024 0.512-2.048 0.512-3.072 1.536-94.208 74.24-235.52 97.28-284.672 219.136-24.064 59.392-24.576 126.464-37.888 188.928-14.336 68.096-34.816 134.656-52.736 202.24-19.456 73.728-36.352 148.48-38.4 224.768 0 4.096 2.56 6.656 5.632 7.168 3.072 1.536 7.168 1.024 9.216-3.584 24.576-53.248 68.096-97.28 103.936-143.36 39.936-52.224 78.848-104.96 116.736-158.72 37.376-52.736 73.728-106.496 110.08-159.744 32.256-47.616 66.048-95.744 74.24-154.112 4.608-34.816 2.56-70.144 4.096-104.96 1.536-37.376 4.096-74.752 4.096-112.128 0-7.168-6.656-9.216-11.264-7.168z m-10.24 197.12c-3.072 64-34.304 114.176-69.12 165.888C839.68 603.136 767.488 707.072 691.2 807.424c-21.504 27.648-43.008 55.296-65.024 82.432-5.12 6.656-10.24 12.8-15.36 19.456 13.824-36.352 23.04-73.728 34.816-110.592 17.408-53.76 47.616-101.376 71.168-152.064 2.56-5.12 5.12-10.752 7.168-15.872 1.536-0.512 2.56-1.536 3.584-2.56 21.504-28.672 73.216-34.816 105.984-36.352 10.24-0.512 10.24-15.872 0-15.872-29.696 1.024-67.584 6.144-95.232 23.04 31.232-70.656 59.904-142.336 95.744-210.432 3.072 0 5.632-2.048 6.144-5.632 1.536-7.168 33.792-12.8 40.448-13.824 15.872-3.072 31.744-3.072 47.616-1.536 10.24 1.024 10.24-14.848 0-15.872-20.992-2.048-41.984-1.024-62.464 4.096l-16.384 4.096c28.672-50.688 61.952-98.304 102.4-140.288 7.168-7.168-4.096-18.432-11.264-11.264C869.888 283.136 820.736 373.76 778.752 466.432c-0.512 1.024-1.024 1.536-1.024 2.56-11.776-29.184-29.184-55.296-51.712-76.8-7.168-7.168-18.432 4.096-11.264 11.264C739.84 427.52 757.76 456.704 768 489.472v0.512c-17.92 40.448-34.816 81.92-52.736 122.368-22.528 50.176-51.712 97.28-72.192 147.968-19.968 48.64-30.208 101.376-49.664 150.016 13.824-113.152 53.76-222.208 79.36-333.312 7.68-31.744 13.312-64 17.92-96.768 4.096-30.208 7.68-60.928 15.872-90.112 16.896-62.976 58.88-107.008 113.664-140.288 53.76-33.28 113.152-55.808 164.864-93.184-0.512 27.136-2.048 54.784-3.584 81.92-1.536 31.744-0.512 62.464-2.048 93.696zM455.168 758.784c-9.728-68.096-22.528-133.632-45.056-198.656-20.48-60.928-43.008-123.392-72.192-180.736-27.648-53.76-72.192-94.208-119.296-130.56-24.064-18.944-48.128-40.96-78.336-48.128-34.816-8.192-74.24-3.072-110.08-0.512-6.656 0.512-9.216 7.68-6.656 12.288 4.608 55.808 29.696 108.032 49.664 159.744 10.24 27.136 20.48 54.272 33.28 80.384 13.312 26.112 29.184 50.176 46.592 74.24 68.608 95.744 151.552 179.712 222.72 273.92 20.992 27.648 40.96 55.808 60.928 84.48 9.216 13.312 19.456 26.624 27.648 40.96 8.704 13.824 15.36 28.672 24.576 42.496 2.56 5.12 9.728 5.12 13.312 1.024 2.048-2.048 2.56-4.608 1.536-7.68-17.92-68.096-38.912-134.656-48.64-203.264z m-152.576-74.24c-75.776-88.576-158.72-176.64-201.728-286.72-12.288-30.72-24.064-61.44-35.84-92.16-11.264-29.184-21.504-58.88-24.576-90.624 27.136-2.048 54.784-4.096 81.92-1.536 33.792 3.072 58.368 24.576 83.968 44.544 46.592 36.352 91.648 75.776 118.784 129.024 28.672 55.808 50.176 117.76 70.656 177.152 20.48 61.44 34.304 123.392 43.008 187.392 6.144 44.544 16.384 87.552 27.648 130.56-29.696-50.176-54.784-104.448-73.216-160.768 1.024-1.024 2.048-2.048 2.048-3.584 4.608-16.896 11.264-31.744 20.992-46.592 5.632-8.704-8.192-16.384-13.824-8.192-6.656 10.752-12.8 22.016-16.896 33.792-6.656-24.064-11.776-48.128-15.36-72.192 1.536-2.56 2.048-6.144-1.024-9.216-2.56-19.968-4.608-40.448-9.728-60.416 2.048-0.512 3.584-1.536 4.608-3.584 3.072-6.144 6.144-12.8 9.216-18.944 2.048-3.584 1.024-8.704-3.072-10.752-3.584-2.048-8.704-1.024-10.752 3.072-2.048 4.096-3.584 7.68-5.632 11.776-0.512-1.024-1.024-2.56-1.536-3.584-9.216-23.552-24.064-44.544-39.936-64-12.8-15.872-25.6-31.232-38.4-46.592v-2.048c-2.048-27.136 1.536-53.248 11.264-78.848 3.584-9.728-11.776-13.824-15.36-4.096-7.68 21.504-11.776 44.032-12.288 66.56-18.944-21.504-37.888-42.496-57.344-63.488-44.032-46.08-91.648-88.576-145.408-122.368-8.704-5.632-16.384 8.192-8.192 13.824 47.616 29.696 89.6 66.048 128.512 105.984-3.584-1.536-7.68-2.56-11.264-4.096-23.552-8.704-48.128-15.36-73.728-13.824-10.24 0.512-10.24 16.384 0 15.872 22.016-1.536 43.008 4.096 64 11.264 18.944 6.656 40.448 13.312 54.784 28.16 1.024 1.024 2.56 2.048 3.584 2.048 26.112 28.672 50.688 57.856 75.264 87.04 18.944 22.528 38.4 46.08 49.664 73.728 7.68 19.456 10.752 39.936 13.824 60.416-7.68-8.192-16.384-15.36-26.624-20.48-20.48-9.728-46.08-6.144-68.096-6.656-10.24 0-10.24 15.36 0 15.872 19.968 0.512 46.08-3.072 64 6.656 13.312 7.168 23.04 19.968 33.792 30.208 6.656 49.152 21.504 96.768 39.424 142.848 10.24 26.112 21.504 52.224 34.304 77.824l-19.968-27.648c-33.792-46.592-69.12-90.112-105.472-132.608z" fill="#056137" /></svg>