<?xml version="1.0" encoding="utf-8"?>
<!-- Uploaded to: SVG Repo, www.svgrepo.com, Generator: SVG Repo Mixer Tools -->
<svg width="40px" height="80px" viewBox="-24.02 0 378.149 378.149" xmlns="http://www.w3.org/2000/svg"><defs><style>.a{fill:#f9b963;}.b{fill:#211715;}.c{fill:#ffffff;}.d{fill:#ef8561;}</style></defs><path class="a" d="M322.785,198.817c5.816-4.506,7.425-12.286.316-16.87,3.574-6.44,2.09-14.225-5.666-15.8,4.273-5.9,3.7-13.72-4.085-16.214,3.824-5.652,3.28-12.866-3.631-15.545,4.428-6.167,3.627-14.385-4.882-16.511,3.515-6.731,1.541-14.758-7.3-15.625,2.329-6.774-.418-13.955-8.565-14.181-.051-7.51-5.389-13.647-13.231-10.747-3.048-6.771-10.326-10.178-16.421-4.262-4.909-6.276-13.5-7.834-17.66-.345-6.261-4.384-14.531-3.477-16.528,5.008-7.469-3.564-16.226-.837-16.1,8.283-7.831-.449-14.547,4.924-11.349,13.426-1.024-.015-2.3.257-3.373.265,4.088,3.255,4.563,10.092,2.044,15.574,7.889,1.333,9.778,15.444,5.63,20.741,6.37,1.555,7.407,18.74.3,22,5.482,3.111,5.926,18.518-1.7,21.555,4.815,3.926,1.556,17.7-8.074,20.963,4,7.259-5.926,19.852-12.444,19.407.518,7-6.3,14.445-14.9,14.913l-.869.028c.562,3.112,3,5.087,7.04,6.21-1.468,6.653,1.657,13.155,8.9,13.2-.3,7.181,4.374,13.315,12.117,11.3-.39,7.7,4.938,14.254,13.64,10.933,2.68,6.418,9.274,9.867,15.626,4.73,4.091,5.377,11,7.2,15.752,1.724l13.666-1.244c6,3.1,13.02,1.75,14.924-5.371,6.795,3.228,14.653,1.1,15.482-7.127,7.266.4,13.552-4.215,11.843-11.676l-.009-.037,1.3-.041c6.793-.216,12.29-4.876,10.375-12.1,7.674.111,14-5.394,10.488-13.9,7.123-2.183,11.416-9.012,6.225-15.828C327.714,211.625,329.829,204.039,322.785,198.817Z"/><path class="a" d="M323.351,199.383a13,13,0,0,0,5.248-9.116c.234-3.828-2.02-6.968-5.094-9.01l.287,1.094c1.707-3.152,2.574-6.974,1.454-10.474a9.824,9.824,0,0,0-7.6-6.5l.478,1.176a13.154,13.154,0,0,0,2.533-10.136c-.77-3.67-3.661-6.1-7.1-7.254l.478,1.175a13.062,13.062,0,0,0,2.262-9.645,9.857,9.857,0,0,0-6.371-7.074l.478,1.175c2.115-3.009,3.361-6.853,2.46-10.518-.942-3.827-4.15-6.2-7.82-7.168l.478,1.175c1.69-3.318,2.438-7.334.963-10.873-1.55-3.722-5.108-5.532-8.957-5.956l.771,1.012a12.968,12.968,0,0,0-.5-10.282c-1.8-3.267-5.233-4.763-8.836-4.911l.8.8c-.064-3.634-1.231-7.469-4.035-9.937-2.877-2.533-6.687-2.829-10.208-1.581l.9.367c-1.522-3.277-4.15-6.224-7.695-7.3-3.688-1.121-7.277.328-9.982,2.878h1.131c-2.4-3-5.891-5.355-9.821-5.578s-7.189,2.07-9.1,5.4l1.095-.287c-3.053-2.093-6.93-3.3-10.608-2.371-3.813.968-6.179,4.172-7.095,7.856l1.175-.478c-3.634-1.69-7.951-2.3-11.7-.615-3.826,1.721-5.6,5.539-5.6,9.589l.8-.8c-3.764-.177-7.829.854-10.471,3.693-2.77,2.975-2.983,7.056-1.65,10.746l.772-1.013c-1.13.02-2.244.226-3.373.265-.635.023-1.131.9-.566,1.366,4.235,3.513,3.981,9.981,1.919,14.6a.811.811,0,0,0,.479,1.175c4.029.754,6.033,4.789,6.8,8.461.747,3.586.658,8.066-1.647,11.105a.805.805,0,0,0,.478,1.175c3.7.991,4.532,6.562,4.62,9.721.106,3.782-.7,8.983-4.515,10.817a.806.806,0,0,0,0,1.381c3.143,1.868,3.764,6.693,3.673,9.982-.1,3.751-1.368,8.517-5.185,10.112-.5.208-.865.9-.353,1.337,2.758,2.343,2.167,6.909,1.173,9.953a14.979,14.979,0,0,1-8.894,9.673.812.812,0,0,0-.478,1.175c2.022,3.835-.01,8.541-2.279,11.785-2.041,2.918-5.582,6.6-9.475,6.418a.806.806,0,0,0-.8.8c.478,8.111-7.534,13.905-14.966,14.141a.812.812,0,0,0-.772,1.013c.773,3.819,4.1,5.759,7.6,6.768l-.559-.984a13.284,13.284,0,0,0,1.341,9.819,9.772,9.772,0,0,0,8.327,4.395l-.8-.8a13.176,13.176,0,0,0,3.377,9.765c2.607,2.621,6.264,3.163,9.753,2.307l-1.013-.771c-.149,3.7.895,7.712,3.748,10.258,3.063,2.733,7.2,2.807,10.9,1.447l-.9-.368a12.506,12.506,0,0,0,7.064,7.118c3.509,1.216,7.011-.025,9.818-2.226h-1.131c2.746,3.519,7.2,6.147,11.776,5a9.262,9.262,0,0,0,2.814-1.252,11.524,11.524,0,0,0,1.184-.9c.295-.257.565-.534.839-.814.048-.05-.414.012-.243-.073a8.8,8.8,0,0,1,2.515-.228l9.278-.845c.441-.04.882-.092,1.324-.12.541-.036.329-.044.686.136a13.4,13.4,0,0,0,5.825,1.387,9.822,9.822,0,0,0,9.681-7.527l-1.175.478c3.356,1.552,7.311,2.178,10.817.721,3.579-1.488,5.443-4.807,5.869-8.539l-.8.8a13.616,13.616,0,0,0,10.064-3.323,9.742,9.742,0,0,0,2.541-9.4l-.771,1.013c3.649-.116,7.273-.762,10.01-3.391a9.85,9.85,0,0,0,2.435-9.763l-.772,1.012c3.7.015,7.637-1.146,10.1-4.059,2.625-3.11,2.613-7.216,1.163-10.855l-.558.984c3.448-1.1,6.744-3.292,8.271-6.686,1.59-3.532.664-7.295-1.568-10.317l-.287,1.095c2.965-2.018,5.426-5,5.875-8.659.485-3.948-1.715-7.248-4.743-9.556-.819-.624-1.617.765-.808,1.382,2.58,1.966,4.449,4.862,3.941,8.212a11.158,11.158,0,0,1-5.072,7.239.809.809,0,0,0-.287,1.095c1.947,2.636,2.921,5.886,1.436,8.984a11.634,11.634,0,0,1-7.184,5.668.808.808,0,0,0-.559.984c1.267,3.179,1.472,6.808-.934,9.509-2.2,2.466-5.578,3.393-8.782,3.38a.809.809,0,0,0-.771,1.013A8.2,8.2,0,0,1,301.933,254c-2.416,2.171-5.546,2.625-8.666,2.724a.811.811,0,0,0-.771,1.012,8.092,8.092,0,0,1-2.342,8.043,12.185,12.185,0,0,1-8.721,2.658.82.82,0,0,0-.8.8,8.274,8.274,0,0,1-5.172,7.184,12.044,12.044,0,0,1-9.106-.748.814.814,0,0,0-1.176.478,8.224,8.224,0,0,1-8.434,6.347,11.583,11.583,0,0,1-2.8-.456,27.4,27.4,0,0,0-2.809-1.092,7.634,7.634,0,0,0-1.755.136l-8.289.754-3.181.289c-1.169.107-1.6.92-2.51,1.642-4.514,3.576-10.089.935-13.224-3.082a.816.816,0,0,0-1.131,0c-2.47,1.938-5.593,2.91-8.61,1.683a11.281,11.281,0,0,1-5.759-6.251.8.8,0,0,0-.9-.367c-3.24,1.19-6.9,1.3-9.551-1.223-2.409-2.289-3.2-5.721-3.076-8.939a.809.809,0,0,0-1.013-.772c-3.049.748-6.181.267-8.393-2.1a11.713,11.713,0,0,1-2.711-8.429.812.812,0,0,0-.8-.8,8.1,8.1,0,0,1-7.1-3.853A11.723,11.723,0,0,1,172.1,241.3a.819.819,0,0,0-.559-.985c-2.981-.861-5.818-2.379-6.481-5.651l-.771,1.013a17.732,17.732,0,0,0,11.942-4.909,14.236,14.236,0,0,0,4.624-10.832l-.8.8c4.493.214,8.494-3.831,10.857-7.211,2.631-3.763,4.585-9.026,2.278-13.4l-.478,1.176a16.662,16.662,0,0,0,10.012-10.791c1.167-3.577,1.615-8.791-1.585-11.51l-.353,1.338c4.468-1.867,6.166-6.879,6.351-11.389.162-3.963-.715-9.406-4.456-11.629V158.7c4.411-2.12,5.475-8.066,5.3-12.46-.156-3.883-1.374-9.82-5.785-11l.478,1.175c2.608-3.438,2.651-8.576,1.75-12.607-.917-4.1-3.393-8.473-7.858-9.309l.478,1.176c2.334-5.236,2.647-12.547-2.17-16.543l-.565,1.365c1.129-.039,2.243-.245,3.373-.265a.807.807,0,0,0,.771-1.013c-1.173-3.245-1.118-6.814,1.432-9.39,2.373-2.4,5.876-3.176,9.146-3.023a.81.81,0,0,0,.8-.8c0-3.5,1.462-6.762,4.8-8.207,3.217-1.391,7-.823,10.09.615a.813.813,0,0,0,1.176-.478c.811-3.265,2.818-6.037,6.236-6.8,3.2-.715,6.5.474,9.116,2.27a.808.808,0,0,0,1.1-.287c1.7-2.958,4.5-4.9,8-4.582,3.4.313,6.33,2.5,8.4,5.089a.809.809,0,0,0,1.131,0c2.385-2.248,5.5-3.486,8.722-2.37,3.013,1.044,5.138,3.661,6.443,6.47a.8.8,0,0,0,.9.368c3.069-1.087,6.389-.957,8.863,1.361a11.952,11.952,0,0,1,3.355,8.614.816.816,0,0,0,.8.8c3.158.129,6.1,1.444,7.583,4.361a11.537,11.537,0,0,1,.21,8.807.812.812,0,0,0,.772,1.013c3.3.364,6.422,2.009,7.608,5.274a11.657,11.657,0,0,1-1,9.147.81.81,0,0,0,.478,1.175c3.253.857,6.028,2.884,6.763,6.313.682,3.181-.546,6.444-2.359,9.024a.81.81,0,0,0,.478,1.175,8.171,8.171,0,0,1,5.306,6.241,11.677,11.677,0,0,1-2.153,8.128.808.808,0,0,0,.478,1.175c3.024,1.013,5.471,3.159,6.032,6.406.53,3.072-.672,6.159-2.424,8.633a.8.8,0,0,0,.478,1.175c3.088.674,5.661,2.523,6.561,5.655a12.1,12.1,0,0,1-1.374,8.974.82.82,0,0,0,.287,1.094c2.71,1.8,4.618,4.554,4.279,7.918-.316,3.14-2.355,5.793-4.757,7.7C321.413,198.891,322.552,200.016,323.351,199.383Z"/><path class="b" d="M233.647,284.081c-3.928,1.9-7.94-.758-10.328-3.815-.719-.92-2.067-.6-2.829,0a7.355,7.355,0,0,1-7.3,1.434c-2.515-1.015-4.148-3.357-5.187-5.759a1.994,1.994,0,0,0-2.258-.919c-2.821,1.036-6.047,1.307-8.384-.914-2.187-2.079-2.841-5.178-2.724-8.091a2.022,2.022,0,0,0-2.532-1.929,7.122,7.122,0,0,1-7.225-1.792c-1.884-2.016-2.443-4.908-2.36-7.58a2.029,2.029,0,0,0-2-2,6.876,6.876,0,0,1-6.062-3.258,10.449,10.449,0,0,1-.906-7.411,2.035,2.035,0,0,0-1.929-2.532c-2.021-.147-4.381-2.251-4.414-4.307-.042-2.571-4.042-2.579-4,0,.071,4.385,4.223,8,8.414,8.307l-1.928-2.532c-.752,3.6-.551,7.563,1.462,10.744a11.012,11.012,0,0,0,9.363,4.989l-2-2a14.363,14.363,0,0,0,3.728,10.613c2.913,2.928,7.019,3.573,10.92,2.616l-2.531-1.928c-.161,4,1.024,8.363,4.1,11.107,3.378,3.014,7.947,3.271,12.072,1.755l-2.258-.919a13.576,13.576,0,0,0,7.781,7.669c3.945,1.349,7.844-.07,10.986-2.535H220.49c3.62,4.634,9.628,7.131,15.176,4.441,2.315-1.123.29-4.574-2.019-3.454Z"/><path class="c" d="M229.966,374.716c0-11.957.751-19.558,1.219-31.506.864-22.038,2.456-42.8,3.556-64.8.562-11.226,2.61-43.247,2.766-47.809.177-5.182-.381-11.543-.425-17.846-4.222-1.78-9.372-6.428-12.938-10.53-4.953-6.509-9.677-18.281-8.437-24.047a6.718,6.718,0,0,1,3.581-.507c1.169,2.644,4.24,11.849,7.338,15.722,4.489,5.611,6.816,7.745,10.688,8.209.387-9.177,1.317-21.956,1.781-29.856.248-4.2,1.538-20.757,3.233-24.831a7.746,7.746,0,0,1,3.655.2c.691,2.025,1.012,18.476.938,24.743-.08,6.827.1,12.94.224,19.832.081,4.476,1.27,34.11,1.293,37.6,6.717-4.478,16.069-16.365,19.524-23.933,1.437-3.147,4.013-8.36,5.037-11.22a4.734,4.734,0,0,1,3.161.642,58.908,58.908,0,0,1-1.383,9.351,52.632,52.632,0,0,1-7.573,17.056,70.345,70.345,0,0,1-18.255,19.574c-.112,2.869-.448,29.148-.448,39.26,0,20.014.04,40.051.909,60,.5,11.579,1.21,24.746,4.44,35.854"/><path class="b" d="M231.966,374.716c.011-12.73.921-25.467,1.5-38.18.634-13.826,1.536-27.638,2.352-41.454,1.073-18.163,2.067-36.331,3.14-54.495.18-3.056.372-6.113.512-9.171.285-6.217-.334-12.443-.391-18.659a1.965,1.965,0,0,0-.991-1.727,31.894,31.894,0,0,1-9.147-6.647,33.818,33.818,0,0,1-6.259-8.125,48.448,48.448,0,0,1-4.021-9.46c-.757-2.521-1.524-5.6-1.028-8.086l-.919,1.2a5.092,5.092,0,0,1,2.571-.234l-1.727-.991q.126.293-.009-.025.073.177.144.354.12.3.239.6c.221.561.437,1.124.654,1.686.5,1.282,1,2.562,1.52,3.833a49.011,49.011,0,0,0,3.926,8.06,34.669,34.669,0,0,0,6.306,7.284,12.86,12.86,0,0,0,6.973,3.129c1.105.145,1.959-1.035,2-2,.389-9.09,1.056-18.165,1.623-27.245.378-6.064.833-12.122,1.592-18.151.363-2.883.632-6.04,1.728-8.759l-1.4,1.4a4.991,4.991,0,0,1,2.591.2l-1.4-1.4a5.958,5.958,0,0,1,.151.7c.093.486-.03-.306.013.1.027.258.055.515.08.773.11,1.182.178,2.368.238,3.553.161,3.129.247,6.263.31,9.395.148,7.3.015,14.6.15,21.906.2,10.7.621,21.4,1.012,32.092.16,4.371.394,8.75.43,13.124a2.016,2.016,0,0,0,3.01,1.727c4.759-3.216,8.7-7.665,12.215-12.16a76.524,76.524,0,0,0,9.081-14.755c1.461-3.107,3.006-6.205,4.183-9.433L273,196.133a4.97,4.97,0,0,1,1.1-.021c.032,0,.843.25.642.077l-.585-1.414a29.4,29.4,0,0,1-.835,6.493,47.828,47.828,0,0,1-1.8,6.9A62.932,62.932,0,0,1,261.1,226.315a69.2,69.2,0,0,1-6.783,7.432q-1.629,1.534-3.361,2.955c-1.084.891-2.432,1.652-3.419,2.639-.864.864-.623,2.724-.644,3.868q-.052,2.7-.089,5.407c-.143,9.765-.265,19.531-.3,29.3-.053,15.666,0,31.34.393,47,.2,7.936.466,15.877.95,23.8a149.814,149.814,0,0,0,2.764,22.472q.567,2.627,1.309,5.211c.71,2.469,4.571,1.419,3.857-1.064-2.873-10-3.645-20.459-4.16-30.8-.564-11.323-.844-22.659-.982-33.994-.216-17.622-.164-35.245.047-52.866.067-5.635.055-11.282.266-16.914l-.991,1.727A76.041,76.041,0,0,0,268.39,223.01a56.82,56.82,0,0,0,9.1-22.415,33.185,33.185,0,0,0,.68-5.459c-.013-2.582-3.066-3.212-5.166-3a2.112,2.112,0,0,0-1.929,1.468c-1.237,3.391-2.923,6.621-4.442,9.891a59.24,59.24,0,0,1-4.906,8.572,81.206,81.206,0,0,1-7,8.845,41.983,41.983,0,0,1-7.288,6.65l3.009,1.727c-.06-7.317-.485-14.645-.755-21.957-.338-9.144-.643-18.282-.753-27.433-.124-10.315.39-20.758-.667-31.04a13.582,13.582,0,0,0-.29-2.05c-.433-1.649-2.066-1.84-3.524-1.982-1.6-.155-3.408-.088-4.075,1.624a15.081,15.081,0,0,0-.614,2.1,112.9,112.9,0,0,0-1.994,14.717c-1.047,11.172-1.631,22.414-2.225,33.617q-.125,2.358-.227,4.718l2-2a9.056,9.056,0,0,1-5.056-2.8,31.6,31.6,0,0,1-5.391-6.66c-2.463-4.269-3.892-8.991-5.852-13.486a1.991,1.991,0,0,0-1.727-.99c-1.567-.111-4.088-.083-5.151,1.295-.765.992-.669,2.815-.613,4.018a31.555,31.555,0,0,0,1.962,8.948,55.27,55.27,0,0,0,4.286,9.3,36.667,36.667,0,0,0,6.344,7.979c2.917,2.827,6.2,5.637,9.956,7.273l-.99-1.727c.055,6.052.653,12.113.413,18.165-.094,2.363-.246,4.725-.383,7.086-.486,8.351-1,16.7-1.5,25.051-1.355,22.771-2.752,45.549-3.895,68.331-.379,7.546-.648,15.1-1.056,22.641-.373,6.893-.689,13.781-.695,20.685,0,2.574,4,2.578,4,0Z"/><path class="d" d="M91.714,257.222c-5.63,6.488-13.828,4.331-18.679-2.045-7.532,6.092-15.351,2-18.53-5.609-10.319,3.938-16.637-3.83-16.174-12.964-9.182,2.388-14.723-4.886-14.368-13.4-8.585-.054-12.291-7.765-10.55-15.654-8.572-2.385-9.926-11.376-5.609-18.712-7.716-4.6-6.565-13.743-.331-19.674C.126,163.861,2,155.02,8.592,149.713c-8.135-5.2-6.415-14.363.282-19.85-5.85-5.762-3.429-13.694,2.969-18.291-6.332-7.317-1.582-16.053,6.982-19.285-6.639-6.848-3.127-15.156,4.342-19.032-5.7-8.31-.088-16.247,8.609-18.393-3.111-9.41,4.156-15.415,12.884-15.289-3.791-10.082,4.173-16.454,13.459-15.921C57.968,12.838,68.352,9.6,77.209,13.83c2.368-10.062,12.174-11.137,19.6-5.938C101.737-.989,111.927.858,117.75,8.3c7.227-7.015,15.857-2.976,19.472,5.054,9.3-3.44,15.628,3.838,15.689,12.743,9.661.268,12.917,8.783,10.156,16.816,10.488,1.028,12.828,10.546,8.66,18.528,10.091,2.522,11.04,12.267,5.789,19.58,8.2,3.176,8.84,11.73,4.306,18.432,9.234,2.958,9.911,12.23,4.844,19.227,9.2,1.871,10.957,11.1,6.719,18.74,8.429,5.435,6.521,14.662-.375,20,8.352,6.191,5.845,15.186-1.342,19.96,6.156,8.083,1.064,16.181-7.382,18.768,4.167,10.089-3.337,16.616-12.436,16.485,2.27,8.567-4.249,14.093-12.3,14.349l-1.539.049.011.044c2.027,8.847-5.428,14.316-14.043,13.845-.984,9.756-10.3,12.279-18.359,8.451-2.258,8.445-10.583,10.049-17.7,6.37"/><path class="b" d="M89.9,255.861c-2.077,2.326-4.827,3.774-8.006,3.232-3.249-.555-5.876-2.743-7.845-5.276-.716-.921-2.07-.6-2.828,0-2.587,2.038-5.945,3.066-9.1,1.762-3.031-1.253-5.032-4.046-6.288-6.966a1.994,1.994,0,0,0-2.258-.919c-3.458,1.278-7.424,1.547-10.286-1.161-2.671-2.528-3.5-6.321-3.357-9.876a2.02,2.02,0,0,0-2.532-1.928c-3.248.8-6.552.313-8.911-2.2-2.312-2.463-3.032-5.994-2.925-9.271a2.028,2.028,0,0,0-2-2,8.519,8.519,0,0,1-7.5-4.025,12.752,12.752,0,0,1-1.126-9.1,2.046,2.046,0,0,0-1.4-2.461,8.524,8.524,0,0,1-6.275-6.241c-.776-3.261.229-6.7,1.861-9.533a2.037,2.037,0,0,0-.718-2.737,8.522,8.522,0,0,1-4.4-7.761c.141-3.4,2.1-6.466,4.473-8.771a2.031,2.031,0,0,0-.405-3.141,8.6,8.6,0,0,1-3.688-7.926c.408-3.4,2.644-6.272,5.213-8.383a2.019,2.019,0,0,0-.4-3.141c-2.85-1.872-4.745-4.741-4.419-8.239.319-3.42,2.553-6.338,5.106-8.47a2.022,2.022,0,0,0,0-2.829,8.408,8.408,0,0,1-2.559-7.8,12.841,12.841,0,0,1,5.123-7.355,2.043,2.043,0,0,0,.4-3.141,8.609,8.609,0,0,1-1.659-9.033c1.382-3.279,4.522-5.651,7.759-6.909a2.028,2.028,0,0,0,.883-3.342c-2.295-2.429-3.561-5.529-2.56-8.835.969-3.2,3.634-5.534,6.5-7.056A2.017,2.017,0,0,0,24.49,72.3c-1.951-2.919-2.817-6.408-1.021-9.624,1.749-3.132,5.056-4.962,8.435-5.83a2.022,2.022,0,0,0,1.4-2.461c-1.041-3.273-.919-6.8,1.586-9.376,2.424-2.5,5.984-3.4,9.37-3.382A2.014,2.014,0,0,0,46.185,39.1c-1.264-3.476-1.339-7.309,1.409-10.1,2.622-2.66,6.51-3.469,10.121-3.294a2.022,2.022,0,0,0,2-2c-.012-3.771,1.528-7.312,5.177-8.824,3.471-1.437,7.586-.82,10.9.729a2.029,2.029,0,0,0,2.938-1.2c.868-3.521,2.948-6.493,6.636-7.325C88.885,6.3,92.526,7.7,95.4,9.672a2.018,2.018,0,0,0,2.736-.717c1.822-3.192,4.774-5.271,8.552-4.914,3.761.356,6.971,2.869,9.249,5.728a2.023,2.023,0,0,0,2.828,0c2.552-2.416,5.842-3.744,9.293-2.552,3.32,1.147,5.614,4.121,7.038,7.2a2,2,0,0,0,2.259.919c3.258-1.162,6.812-1.152,9.467,1.326,2.6,2.424,3.635,6.024,3.69,9.489a2.04,2.04,0,0,0,2,2c3.383.132,6.482,1.519,8.073,4.628,1.529,2.988,1.183,6.575.155,9.656a2.026,2.026,0,0,0,1.928,2.531c3.417.371,6.724,2.083,7.991,5.438,1.246,3.3.507,7.023-1.057,10.082a2.026,2.026,0,0,0,1.195,2.938c3.511.916,6.477,3.027,7.279,6.725.757,3.491-.7,7.1-2.685,9.916-.821,1.164.108,2.5,1.195,2.938a8.592,8.592,0,0,1,5.553,6.638c.474,3.145-.732,6.277-2.443,8.856a2.021,2.021,0,0,0,1.195,2.938c3.232,1.076,5.838,3.366,6.414,6.837.56,3.376-.844,6.751-2.764,9.452a2.011,2.011,0,0,0,1.195,2.938c3.289.71,6.07,2.6,7.04,5.945a13.236,13.236,0,0,1-1.517,9.857,2.05,2.05,0,0,0,.718,2.737c2.9,1.917,4.946,4.863,4.557,8.456-.374,3.448-2.7,6.328-5.337,8.407-1.122.887-.5,2.457.405,3.141,2.668,2.026,4.665,5.083,4.194,8.547-.454,3.333-2.836,6.129-5.536,7.96a2.02,2.02,0,0,0-.717,2.736c2.076,2.8,3.268,6.228,1.717,9.568-1.481,3.189-4.649,5.23-7.905,6.263a2.015,2.015,0,0,0-1.4,2.46c1.356,3.384,1.754,7.3-.822,10.233-2.412,2.741-6.149,3.739-9.686,3.72a2.022,2.022,0,0,0-1.928,2.532,8.682,8.682,0,0,1-2.39,8.951c-2.621,2.381-6.143,2.807-9.524,2.914a2.029,2.029,0,0,0-1.929,2.532,8.541,8.541,0,0,1-2.506,8.514c-2.561,2.325-6.253,3-9.6,2.844a2.047,2.047,0,0,0-2,2,8.733,8.733,0,0,1-5.316,7.488,13.122,13.122,0,0,1-10.034-.764,2.033,2.033,0,0,0-2.938,1.195c-.835,2.978-2.707,5.48-5.766,6.374a12.447,12.447,0,0,1-8.992-1.2c-2.292-1.159-4.319,2.29-2.019,3.454,3.763,1.9,8.231,2.838,12.345,1.52a12.769,12.769,0,0,0,8.289-9.085l-2.938,1.195c4.272,1.984,9.277,2.777,13.741.917,4.665-1.943,7.081-6.224,7.628-11.095l-2,2c4.531.206,9.282-1.036,12.638-4.211a12.619,12.619,0,0,0,3.323-12.21L157.6,229.09c4.6-.146,9.1-1,12.566-4.283,3.488-3.3,4.348-8.106,3.205-12.646l-1.929,2.532c4.626.025,9.618-1.464,12.7-5.1,3.361-3.972,3.551-9.216,1.668-13.915l-1.4,2.461c4.316-1.37,8.506-4.14,10.427-8.385,2.049-4.529,1.053-9.41-1.85-13.322l-.717,2.737c3.852-2.612,6.922-6.443,7.489-11.176.606-5.063-2.273-9.3-6.147-12.239l.4,3.141a16.382,16.382,0,0,0,6.53-11.528c.314-4.914-2.613-9.006-6.56-11.617l.717,2.736c2.154-3.963,3.237-8.8,1.839-13.205a12.684,12.684,0,0,0-9.753-8.473l1.2,2.938a16.6,16.6,0,0,0,3.115-12.8c-.98-4.72-4.742-7.892-9.155-9.361l1.2,2.938A16.534,16.534,0,0,0,185.94,88.3c-.875-4.446-4.231-7.518-8.3-9.151l1.2,2.938c2.672-3.789,4.148-8.656,3.029-13.257-1.191-4.893-5.31-8.032-10.014-9.26l1.2,2.938c2.13-4.164,3.07-9.2,1.267-13.659-1.988-4.917-6.579-7.329-11.654-7.88l1.929,2.532c1.4-4.205,1.478-9.013-.687-12.981-2.3-4.213-6.76-6.186-11.4-6.366l2,2c-.072-4.563-1.566-9.4-5.073-12.51-3.679-3.26-8.6-3.782-13.148-2.162l2.259.919c-1.908-4.128-5.288-7.772-9.725-9.135-4.734-1.453-9.419.392-12.888,3.676h2.828C115.745,3.156,111.314.308,106.4.02c-5.038-.3-9.29,2.656-11.721,6.916l2.737-.717C93.576,3.579,88.662,2.132,84.047,3.3c-4.874,1.228-8,5.332-9.17,10.057l2.938-1.2C73.14,9.974,67.691,9.25,62.873,11.428c-4.852,2.192-7.174,7.134-7.158,12.277l2-2c-4.716-.228-9.832,1.128-13.143,4.667-3.545,3.789-3.966,9.05-2.244,13.786l1.929-2.532C39.762,37.6,34.99,39,31.865,42.384,28.547,45.982,28,50.9,29.444,55.448l1.4-2.461c-4.432,1.14-8.8,3.775-10.972,7.94-2.3,4.4-1.531,9.353,1.167,13.391l.718-2.736c-3.862,2.054-7.253,5.432-8.422,9.748-1.245,4.6.5,9.062,3.675,12.425l.883-3.343c-4.546,1.766-8.6,4.888-10.474,9.508s-.511,9.418,2.609,13.119l.4-3.141c-3.35,2.46-6.226,5.877-7.027,10.063a12.572,12.572,0,0,0,3.653,11.37V128.5A16.676,16.676,0,0,0,.759,140.1c-.268,4.813,2.528,8.842,6.42,11.4l-.405-3.141A16.875,16.875,0,0,0,.388,159.648c-.426,4.641,2.058,8.614,5.672,11.3l-.4-3.141C2.439,170.92.072,175.138,0,179.7a12.6,12.6,0,0,0,6.39,10.915l-.718-2.736c-2.217,3.847-3.356,8.514-2.194,12.892a12.591,12.591,0,0,0,9,8.758l-1.4-2.46c-.878,4.161-.635,8.747,1.682,12.43a12.655,12.655,0,0,0,10.8,5.756l-2-2c-.145,4.428,1.114,9.086,4.293,12.3,3.349,3.389,8.109,4.139,12.607,3.025l-2.532-1.929c-.194,4.641,1.173,9.7,4.732,12.892,3.9,3.5,9.213,3.762,13.974,2l-2.259-.919a15.8,15.8,0,0,0,8.978,8.914c4.532,1.587,9.084-.057,12.693-2.9H71.217a16.31,16.31,0,0,0,10.356,6.42,12.562,12.562,0,0,0,11.151-4.375c1.71-1.915-1.11-4.754-2.828-2.829Z"/><path class="c" d="M85.554,373.968c0-14.062.884-23,1.434-37.054,1.016-25.92,2.888-50.337,4.183-76.21.66-13.2,3.069-50.863,3.253-56.228.208-6.1-.31-15.49-.363-22.9a45.987,45.987,0,0,1-16.5-11.808c-5.06-5.956-9.861-19.122-8.777-26.944a6.374,6.374,0,0,1,3.756-.7c1.375,3.11,4.763,14.871,9.1,19.518,5.767,6.178,8.985,7.435,12.7,8.209.465-10.649,1.573-24.947,2.091-35.162.185-3.639,2.44-24.28,3.66-28.636a9.1,9.1,0,0,1,4.3.232c.407,3.311.523,20.969.639,28.172.13,8.028.581,16.148.728,24.254.095,5.264,1.494,40.117,1.521,44.217,7.9-5.267,18.9-19.248,22.962-28.148,1.69-3.7,4.72-9.833,5.924-13.2,1.219-.175,3.194.174,3.717.755.116,1.626-.977,8.253-1.626,11a61.865,61.865,0,0,1-8.907,20.06c-7.9,10.223-14.251,17.039-21.47,23.021-.131,3.375-.526,34.282-.526,46.175,0,23.538.047,47.1,1.068,70.56.593,13.618,1.1,29.408,4.9,42.472"/><path class="b" d="M87.554,373.968c.012-15.2,1.1-30.408,1.8-45.584.768-16.57,1.859-33.123,2.829-49.682,1.264-21.547,2.466-43.1,3.725-64.646.185-3.166.4-6.333.513-9.5.276-7.654-.3-15.327-.36-22.981a1.967,1.967,0,0,0-.99-1.727c-7.48-3.359-14.665-8.216-18.778-15.492a47.188,47.188,0,0,1-4.374-10.763,27.723,27.723,0,0,1-1.134-10.77l-.991,1.726a4.967,4.967,0,0,1,2.747-.424l-1.727-.99c-.215-.494.09.229.124.315.1.266.2.534.3.8.21.567.413,1.136.617,1.705.547,1.522,1.094,3.043,1.673,4.552a53.162,53.162,0,0,0,4.673,9.9,31.487,31.487,0,0,0,8.134,8.167,19.725,19.725,0,0,0,7.473,3.208,2.031,2.031,0,0,0,2.532-1.929c.5-11.21,1.4-22.4,2.009-33.6.363-6.7,1.207-13.382,2.076-20.029a72.23,72.23,0,0,1,1.594-9.638l-1.4,1.4a6.187,6.187,0,0,1,3.235.232l-1.468-1.928c.277,2.37.263,4.792.321,7.175.092,3.8.144,7.6.193,11.4.119,9.175.389,18.335.687,27.506q.577,17.809,1.2,35.616c.182,4.978.448,9.964.488,14.946a2.016,2.016,0,0,0,3.01,1.726c5.648-3.813,10.311-9.128,14.469-14.47a97.162,97.162,0,0,0,6.271-8.963,85.812,85.812,0,0,0,4.284-8.319c1.671-3.551,3.436-7.095,4.78-10.787l-1.928,1.469a4.894,4.894,0,0,1,2.3.169l-.586-1.414a34.937,34.937,0,0,1-1.011,7.818,55.963,55.963,0,0,1-2.089,7.992,59.976,59.976,0,0,1-4.647,10.126,74.339,74.339,0,0,1-8.024,10.955c-2.565,3.053-5.234,6.022-8.051,8.845q-1.974,1.978-4.047,3.855-.943.855-1.908,1.686c-.691.6-1.692,1.173-2.053,2.03-.471,1.118-.226,2.84-.248,4.028q-.06,3.242-.1,6.483c-.166,11.472-.311,22.946-.344,34.419-.053,18.587.006,37.184.488,55.767.24,9.239.582,18.48,1.078,27.71a171.418,171.418,0,0,0,2.986,26.125q.634,3.015,1.484,5.978c.709,2.47,4.57,1.42,3.857-1.063-3.353-11.668-4.025-23.922-4.569-35.986q-.9-20.059-1.163-40.135c-.261-20.831-.2-41.663.048-62.493.079-6.684.063-13.382.314-20.062l-.585,1.414a114.147,114.147,0,0,0,10.624-10.076,132.157,132.157,0,0,0,11.158-13.35A61.384,61.384,0,0,0,141.118,169a40.21,40.21,0,0,0,.771-6.187c.017-2.845-3.442-3.464-5.723-3.229a2.114,2.114,0,0,0-1.929,1.468c-1.114,3.061-2.572,6-3.958,8.943-1.266,2.689-2.467,5.4-3.965,7.97a90.287,90.287,0,0,1-12.424,16.461,46.66,46.66,0,0,1-7.619,6.775l3.009,1.727c-.087-10.718-.732-21.452-1.121-32.162-.522-14.34-1.04-28.689-1.217-43.037-.052-4.285-.1-8.57-.2-12.854-.061-2.85-.022-5.754-.353-8.59a2.092,2.092,0,0,0-1.468-1.929c-2.048-.583-6.042-1.271-6.823,1.405a32.457,32.457,0,0,0-.759,4.012c-.674,4.24-1.2,8.507-1.691,12.771-1.01,8.689-1.493,17.37-2.058,26.1-.458,7.067-.937,14.134-1.25,21.209l2.532-1.928a16.709,16.709,0,0,1-6.651-2.9,26.192,26.192,0,0,1-7.082-7.472c-3.066-5.16-4.5-10.976-6.874-16.436a1.988,1.988,0,0,0-1.727-.991c-1.755-.11-5.057.121-5.685,2.166a13.866,13.866,0,0,0-.153,4.771,43.129,43.129,0,0,0,2.369,10.845c2.536,7.306,6.392,13.611,12.486,18.475a53.3,53.3,0,0,0,11.494,6.92l-.991-1.727c.058,7.031.491,14.061.4,21.094-.035,2.819-.225,5.635-.386,8.449-.558,9.781-1.167,19.558-1.752,29.337-.636,10.644-1.18,21.291-1.779,31.937-.933,16.553-2.043,33.1-2.885,49.655-.457,9-.772,18-1.258,27-.448,8.305-.843,16.605-.85,24.925,0,2.574,4,2.578,4,0Z"/><path class="b" d="M32.252,378.078l9.474,0,21.626,0,30.843.008,37.13.009,40.484.01,40.906.011,38.4.009,32.953.008,24.577.006,13.246,0h1.2c2.574,0,2.578-4,0-4l-10.108,0-22.122,0-31.2-.008-37.352-.009-40.569-.01-40.854-.01-38.206-.01-32.626-.008-24.114-.006-12.647,0H32.252c-2.574,0-2.578,4,0,4Z"/><path class="b" d="M69.994,113.454c-3.142-6.543-12.958-7.309-17.731-2.252a10.085,10.085,0,0,0-1.685,2.309c-.548,1.093-.041,2.328.482,3.337a7.641,7.641,0,0,0,3.159,3.12,12.875,12.875,0,0,0,8.9.9c3.027-.7,6.324-2.631,7.079-5.873a2.043,2.043,0,0,0-1.4-2.46,2.022,2.022,0,0,0-2.46,1.4c-.028.118-.063.233-.093.35-.072.274-.117.2.029-.028-.147.235-.283.5-.424.737-.169.292.256-.245.006-.013-.092.086-.17.19-.258.28s-.185.181-.282.267c-.065.058-.441.346-.207.178s-.123.078-.183.119c-.116.076-.233.149-.351.22-.266.157-.544.284-.816.429-.3.161.313-.11-.127.055-.139.052-.277.1-.418.152q-.464.159-.939.279c-.3.075-.6.135-.9.191-.2.037-.435.061-.079.02-.18.021-.359.04-.539.055a12.069,12.069,0,0,1-2,0c-.076-.006-.547-.059-.264-.022s-.182-.033-.256-.047a9.515,9.515,0,0,1-.941-.221q-.246-.072-.487-.158c-.07-.025-.488-.2-.231-.084s-.148-.077-.213-.11c-.147-.075-.291-.154-.432-.239s-.27-.181-.408-.268c-.186-.116.122.1.128.105-.071-.059-.144-.115-.212-.177a7.317,7.317,0,0,1-.667-.7c.283.337.01-.006-.087-.166-.086-.142-.154-.293-.236-.437-.11-.19.049.135.054.148-.036-.092-.073-.183-.1-.277-.062-.193-.119-.386-.167-.583l-.2,1.541A6.589,6.589,0,0,1,57,112.607c.157-.08.316-.157.477-.228-.4.176.174-.055.257-.083a9.128,9.128,0,0,1,1.092-.3c.169-.035.34-.065.512-.092-.476.075.143-.007.242-.014a9.966,9.966,0,0,1,1.12-.015c.172.007.343.026.514.035.479.026-.283-.065.148.016.392.073.778.151,1.162.262a9.538,9.538,0,0,1,.955.331c-.432-.176.122.067.207.109.172.087.343.18.51.278a8.183,8.183,0,0,1,.82.548c-.357-.274.025.035.1.1.162.145.317.3.466.453.112.117.216.241.322.363.334.382-.185-.322.078.112.2.327.4.641.564.988a2.019,2.019,0,0,0,2.737.717A2.042,2.042,0,0,0,69.994,113.454Z"/><path class="a" d="M135.126,125.331c2.7-5.8,12.843-7,16.682.059C150.091,132.812,136.388,131.154,135.126,125.331Z"/><path class="b" d="M136.853,126.34a11.8,11.8,0,0,1,.59-1.032c.215-.354-.2.2.095-.135.112-.128.22-.257.337-.38.136-.144.278-.282.424-.416.064-.058.534-.446.185-.177a8.2,8.2,0,0,1,.857-.573c.15-.088.3-.171.455-.251.055-.028.6-.284.394-.2a4.1,4.1,0,0,0,.415-.153c.167-.058.335-.111.505-.161.371-.107.747-.185,1.126-.258.505-.1-.127-.013.266-.035.18-.01.358-.029.538-.037a7.692,7.692,0,0,1,3.912.776,6.964,6.964,0,0,1,3.129,3.087l-.2-1.541a6.874,6.874,0,0,1-.282.9c.128-.321.041-.1-.054.068s-.209.333-.3.5c-.174.314.208-.2-.038.057-.1.1-.19.216-.291.319s-.208.2-.314.3c-.054.049-.112.092-.166.14-.2.178.29-.2.06-.05-.249.157-.487.322-.747.461-.131.07-.267.13-.4.2-.2.1.122-.047.135-.052-.094.037-.187.076-.282.109a11.3,11.3,0,0,1-1.951.487c.357-.057.092-.012-.1,0-.159.012-.319.025-.479.034-.349.018-.7.02-1.047.009s-.7-.046-1.049-.075c-.4-.033.28.062-.109-.016-.184-.037-.369-.064-.553-.1a13.5,13.5,0,0,1-1.892-.547c-.072-.026-.143-.057-.214-.085-.269-.1.313.149.057.022-.134-.068-.271-.128-.405-.2a8.96,8.96,0,0,1-.823-.475c-.072-.047-.482-.333-.261-.17s-.161-.136-.225-.193a9.147,9.147,0,0,1-.649-.672c.288.313.048.064-.066-.118-.079-.125-.143-.259-.219-.386-.218-.363.041.247-.02-.044-.034-.162-.1-.322-.137-.485a2,2,0,0,0-3.857,1.063c.7,3,3.51,4.871,6.269,5.777a13.731,13.731,0,0,0,9.075-.084,8.78,8.78,0,0,0,3.825-2.77,7.8,7.8,0,0,0,1.2-2.253,2.657,2.657,0,0,0,.074-1.912,6.452,6.452,0,0,0-.831-1.385,11.485,11.485,0,0,0-9.675-4.7c-3.92.134-7.979,2.139-9.731,5.787a2.056,2.056,0,0,0,.718,2.737A2.018,2.018,0,0,0,136.853,126.34Z"/><path class="a" d="M55,76.825c-.57-6.094-9.326-10.437-15.055-5.3C39.108,78.762,51.992,81.669,55,76.825Z"/><path class="b" d="M57,76.825c-.823-7.743-10.384-12.13-16.9-7.919a13.553,13.553,0,0,0-1.322.991,2.571,2.571,0,0,0-.859,1.987,7.28,7.28,0,0,0,.246,2.233,8.088,8.088,0,0,0,2.233,3.672,13.307,13.307,0,0,0,8.085,3.379c3.071.267,6.5-.607,8.248-3.333a2,2,0,1,0-3.454-2.019c-.154.24-.133.158.048-.029-.093.1-.172.2-.265.3s-.168.157-.251.238c-.315.307.316-.183-.057.043-.222.134-.455.252-.675.387-.3.183.361-.119.024-.006-.16.054-.317.116-.478.165a7.8,7.8,0,0,1-.824.2c-.076.015-.515.086-.2.039s-.268.023-.347.029a12.017,12.017,0,0,1-1.916-.031c-.229-.02-.383-.063-.047,0-.144-.028-.29-.046-.434-.072q-.507-.093-1.006-.227c-.308-.083-.614-.177-.915-.284-.162-.057-.321-.121-.481-.181.377.142.046.019-.124-.061a12.493,12.493,0,0,1-1.661-.975c-.308-.206.235.222-.034-.029-.117-.109-.243-.209-.36-.319-.23-.216-.421-.469-.645-.689-.151-.149.1.133.109.142-.046-.075-.1-.143-.152-.217-.095-.148-.19-.3-.275-.449-.04-.075-.262-.509-.129-.233s-.077-.221-.107-.316c-.046-.149-.081-.3-.118-.45-.129-.523-.026.159-.029-.138a10.016,10.016,0,0,1,.019-1.136l-.585,1.414a7.946,7.946,0,0,1,1.885-1.192q.194-.088-.032.014c.089-.035.178-.068.269-.1.181-.056.359-.118.542-.169s.363-.093.547-.131c.063-.013.6-.1.375-.07s.314-.021.376-.025q.321-.018.642-.012c.182,0,.365.011.547.025.095.007.624.082.191.013a10.378,10.378,0,0,1,2.09.569c-.391-.15.144.068.181.086.162.078.321.16.479.246a10.02,10.02,0,0,1,.909.563c.034.024.483.377.161.112.136.112.27.225.4.343a9.409,9.409,0,0,1,.735.746c.083.094.332.41.123.131.1.138.2.279.3.422.188.288.34.589.505.889.182.332-.061-.247.1.225.053.161.11.32.157.483s.079.33.122.494c.133.508,0-.174.043.227a2.059,2.059,0,0,0,2,2A2.013,2.013,0,0,0,57,76.825Z"/><path class="b" d="M59.569,78.841A93.461,93.461,0,0,0,66.23,97.624a114.261,114.261,0,0,0,11.433,19.83,65.411,65.411,0,0,0,7.725,8.973c1.869,1.77,4.7-1.054,2.829-2.829a74.641,74.641,0,0,1-12.649-16.672A120.43,120.43,0,0,1,66.337,87.5a74.7,74.7,0,0,1-2.911-9.718c-.549-2.514-4.406-1.45-3.857,1.063Z"/><path class="b" d="M250.313,283.887c3.254,1.639,7.119,2.46,10.674,1.308a11.108,11.108,0,0,0,7.188-7.874l-2.938,1.195c3.708,1.715,8.014,2.4,11.885.782,4.054-1.694,6.124-5.409,6.607-9.636l-2,2a14.8,14.8,0,0,0,10.913-3.675,10.974,10.974,0,0,0,2.849-10.57l-1.928,2.532c3.974-.126,7.885-.886,10.858-3.742,2.994-2.876,3.723-7.007,2.744-10.931l-1.929,2.532c3.983.015,8.3-1.268,10.944-4.412,2.894-3.438,3.095-7.949,1.472-12.022l-1.4,2.46c3.736-1.193,7.314-3.572,8.989-7.237a11.269,11.269,0,0,0-1.568-11.528l-.717,2.736c3.335-2.27,6-5.583,6.469-9.695.5-4.4-1.977-8.03-5.338-10.592l.405,3.142a14.107,14.107,0,0,0,5.6-9.965c.261-4.254-2.278-7.781-5.688-10.046l.718,2.736c1.854-3.424,2.792-7.6,1.574-11.4a11.016,11.016,0,0,0-8.435-7.343l1.2,2.938a14.3,14.3,0,0,0,2.654-11.06c-.857-4.082-4.122-6.814-7.935-8.092l1.2,2.938a14.254,14.254,0,0,0,2.383-10.57c-.774-3.857-3.69-6.488-7.209-7.912l1.195,2.938a14.325,14.325,0,0,0,2.581-11.442c-1.04-4.226-4.6-6.938-8.659-8.007l1.2,2.938c1.834-3.6,2.653-7.946,1.084-11.8-1.74-4.274-5.7-6.35-10.115-6.837l1.929,2.531A14.149,14.149,0,0,0,299.137,92c-2-3.641-5.856-5.34-9.872-5.505l2,2c-.069-3.931-1.353-8.115-4.387-10.785a11.175,11.175,0,0,0-11.376-1.89l2.259.919a14.239,14.239,0,0,0-8.412-7.853c-4.1-1.246-8.14.35-11.15,3.186h2.828a15.109,15.109,0,0,0-10.669-5.929c-4.351-.248-8.027,2.32-10.132,5.989l2.736-.717a14.483,14.483,0,0,0-11.532-2.492c-4.209,1.068-6.919,4.615-7.934,8.694l2.938-1.195c-4.063-1.889-8.733-2.5-12.916-.615s-6.2,6.191-6.192,10.625l2-2c-4.056-.19-8.451.981-11.3,4.023-3.051,3.257-3.46,7.769-2.006,11.861l1.929-2.532a13.835,13.835,0,0,0-4.173-.017,2.016,2.016,0,0,0-1.4,2.46,2.046,2.046,0,0,0,2.46,1.4,10.9,10.9,0,0,1,3.11.16,2.009,2.009,0,0,0,1.928-2.532c-1.007-2.833-1.077-5.912,1.171-8.169,2.155-2.163,5.33-2.789,8.278-2.651a2.024,2.024,0,0,0,2-2c0-3.067,1.223-5.954,4.211-7.171a11.414,11.414,0,0,1,8.878.615,2.03,2.03,0,0,0,2.938-1.195c.717-2.882,2.38-5.288,5.4-5.962,2.873-.642,5.847.542,8.193,2.149a2.019,2.019,0,0,0,2.736-.717c1.489-2.6,3.88-4.311,6.963-3.988s5.681,2.393,7.556,4.738a2.024,2.024,0,0,0,2.828,0c2.081-1.961,4.747-3.058,7.555-2.062,2.713.962,4.554,3.4,5.725,5.919a2,2,0,0,0,2.259.919c2.653-.94,5.531-.975,7.7,1.053a10.743,10.743,0,0,1,3,7.765,2.04,2.04,0,0,0,2,2c2.738.112,5.283,1.22,6.546,3.767a10.423,10.423,0,0,1,.09,7.882,2.028,2.028,0,0,0,1.928,2.532c2.76.3,5.427,1.682,6.451,4.393a10.366,10.366,0,0,1-.874,8.223,2.027,2.027,0,0,0,1.195,2.938c2.872.756,5.275,2.444,5.925,5.474.613,2.859-.621,5.8-2.238,8.1-.82,1.167.108,2.5,1.195,2.938a6.925,6.925,0,0,1,4.468,5.4,10.639,10.639,0,0,1-2.032,7.2,2.021,2.021,0,0,0,1.195,2.938c2.625.88,4.75,2.734,5.193,5.568.432,2.763-.737,5.5-2.3,7.709a2.012,2.012,0,0,0,1.2,2.938c2.68.585,4.935,2.075,5.723,4.816a10.861,10.861,0,0,1-1.253,8.049,2.049,2.049,0,0,0,.718,2.736c2.351,1.563,4.031,3.956,3.684,6.882-.335,2.821-2.254,5.142-4.405,6.847-1.122.89-.5,2.454.4,3.141,2.181,1.662,3.81,4.185,3.368,7.017a9.954,9.954,0,0,1-4.5,6.362,2.022,2.022,0,0,0-.718,2.737c1.69,2.288,2.691,5.037,1.437,7.773-1.2,2.612-3.817,4.27-6.467,5.116a2.017,2.017,0,0,0-1.4,2.46c1.1,2.767,1.474,5.942-.626,8.342-1.967,2.249-5.047,3.04-7.933,3.029a2.021,2.021,0,0,0-1.928,2.531,7,7,0,0,1-1.928,7.237c-2.165,1.945-5.036,2.285-7.817,2.373a2.028,2.028,0,0,0-1.929,2.532,6.868,6.868,0,0,1-2.033,6.875c-2.121,1.895-5.119,2.427-7.872,2.306a2.048,2.048,0,0,0-2,2,7.038,7.038,0,0,1-4.292,6.027,10.727,10.727,0,0,1-8.181-.627,2.033,2.033,0,0,0-2.938,1.195,6.99,6.99,0,0,1-4.665,5.164,10.192,10.192,0,0,1-7.321-.987c-2.293-1.155-4.321,2.294-2.019,3.453Z"/></svg>