<?xml version="1.0" encoding="utf-8"?>
<!-- Uploaded to: SVG Repo, www.svgrepo.com, Generator: SVG Repo Mixer Tools -->
<svg width="800px" height="800px" viewBox="0 0 1024 1024" class="icon"  version="1.1" xmlns="http://www.w3.org/2000/svg"><path d="M329.38 67.05c-26.8 9.6-72.36 203-56.59 258 27.91 14 80.76 23 97.78 40.31-32.83-2.62-100.33-1.11-100.33-1.11L281.79 478l112.44 19.84-103.86 19.72 31.86 101.18 107.23 5.72-85.31 30.19L406 756.76l118.66-2.94-85.22 26.58 40.32 58.16 91.58 13.23-48.86 22.91s47.69 61.08 89.49 70.68 78.92 19.75 93.5 12.85 45.83-88.11 47.68-124.78 1.18-64 1.18-64l-24.78 17.71 20.89-73.17-27-73.57L699 696.28l11.39-94.8-56.5-75.27L612 610l21.76-122.79-48-76.57-46.52 80.67L567 366.47l-57.65-81-36.85 75.16 19.53-108-60.57-63.69-24.8 57.59-4.33-93.66s-41.17-45.09-55-80.89c-4.77-15.56-17.95-4.93-17.95-4.93z" fill="#00737F" /></svg>