<?xml version="1.0" ?>

<!DOCTYPE svg  PUBLIC '-//W3C//DTD SVG 1.1//EN'  'http://www.w3.org/Graphics/SVG/1.1/DTD/svg11.dtd'>

<!-- Uploaded to: SVG Repo, www.svgrepo.com, Generator: SVG Repo Mixer Tools -->
<svg fill="#000000" width="80px" height="120px" viewBox="0 0 6000 6000" style="fill-rule:evenodd;clip-rule:evenodd;stroke-linejoin:round;stroke-miterlimit:2;" version="1.1" xml:space="preserve" xmlns="http://www.w3.org/2000/svg" xmlns:serif="http://www.serif.com/" xmlns:xlink="http://www.w3.org/1999/xlink">

<g transform="matrix(7.91111,0,0,7.91111,-8435.78,-4413.98)">

<path d="M1464.92,786.233L1464.78,786.437C1464.7,786.547 1464.63,786.658 1464.56,786.769L1464.42,786.975C1463.1,787.48 1461.81,788.112 1460.56,788.829C1456.98,790.886 1453.67,793.654 1450.58,796.11C1445.63,800.042 1440.79,804.117 1436.24,808.504C1429.75,814.755 1423.38,821.237 1417.3,827.993C1409.74,830.362 1402.76,835.022 1397.5,840.859C1388.38,850.99 1384.37,864.62 1381.82,878.854C1381.64,879.85 1381.47,880.849 1381.31,881.85C1380.72,883.213 1380.15,884.586 1379.6,885.97C1372.32,904.227 1367.44,923.274 1359.71,941.383C1352.49,958.285 1343.27,974.157 1335.09,990.553C1334.07,986.456 1332.84,982.386 1331.52,978.33C1342.45,957.052 1354.63,935.671 1357.24,911.252C1357.73,906.704 1357.32,886.286 1359.53,871.197C1362.88,867.668 1367.11,862.831 1368.99,859.256C1369.62,858.044 1370,856.955 1370.04,856.086C1370.08,855.325 1369.88,854.698 1369.48,854.217C1369.06,853.734 1368.41,853.377 1367.43,853.267C1365.74,853.08 1364.27,853.755 1363.01,855.165C1361.36,857.012 1360.07,860.222 1359.11,864.24C1358.65,866.138 1358.26,868.221 1357.92,870.424C1355.82,872.629 1354.14,874.23 1353.82,874.496C1353.36,874.888 1352.89,875.277 1352.42,875.668C1337.3,888.348 1320.32,900.434 1317.89,921.499C1316.1,936.992 1320.73,951.887 1325.81,966.794C1327.11,970.586 1328.43,974.378 1329.68,978.182C1328.15,981.147 1326.66,984.114 1325.22,987.087C1313.3,1011.7 1305.26,1036.77 1317.54,1066.8C1320.43,1073.87 1323.75,1081.03 1327.64,1087.87C1326.73,1115.56 1336.15,1143.88 1348.54,1169.32C1354,1180.54 1359.57,1194.78 1369.47,1202.99C1369.83,1203.29 1370.37,1203.24 1370.67,1202.88C1370.97,1202.52 1370.92,1201.98 1370.56,1201.68C1360.84,1193.61 1355.44,1179.59 1350.07,1168.57C1338.21,1144.23 1329.06,1117.21 1329.27,1090.68C1338.41,1105.94 1350.52,1119.27 1367.21,1126.07L1369.5,1126.98C1371.54,1127.79 1374.57,1129.16 1377.97,1130.9C1379.56,1138.08 1381.89,1145.74 1385.24,1150.86C1388.39,1155.69 1392.44,1158.3 1397.48,1156.68C1400.96,1155.56 1402.79,1153.99 1403.45,1152.27C1403.88,1151.15 1403.86,1149.95 1403.43,1148.68C1402.86,1146.98 1401.54,1145.15 1399.68,1143.29C1394.89,1138.48 1386.49,1133.4 1379.45,1129.75C1377.91,1122.56 1377.14,1115.96 1376.84,1113.15C1374.86,1094.29 1376.73,1061.21 1386.73,1035.44C1391.8,1022.37 1398.95,1011.17 1408.81,1004.75C1417.22,1007.84 1424.68,1013.08 1431.08,1019.63C1439.42,1028.18 1445.95,1038.99 1450.37,1050.26C1450.46,1052.14 1450.47,1053.83 1450.4,1055.28C1449.85,1067.51 1445.92,1078.49 1443.27,1090.3C1442.88,1092.07 1440.44,1105.31 1442.3,1111.79C1442.86,1113.73 1443.81,1115.1 1445.16,1115.64C1446.08,1116.01 1447.22,1116.02 1448.61,1115.47C1453.46,1113.56 1456.22,1108.21 1457.63,1101.79C1459.65,1092.53 1458.93,1081.08 1458.36,1075.47C1457.52,1067.18 1455.38,1058.41 1452.06,1049.9C1451.52,1039.04 1448.43,1022.39 1441.78,1010.93C1436.34,1001.59 1428.55,995.694 1417.96,998.706C1414.61,999.657 1411.5,1001.06 1408.61,1002.86C1404.39,1001.39 1399.95,1000.43 1395.3,1000.09C1385.97,999.407 1377.42,1002.64 1369.82,1007.9C1358.56,1015.69 1349.36,1027.96 1342.71,1038.35C1333.29,1053.08 1328.78,1068.74 1327.79,1084.64C1324.51,1078.6 1321.65,1072.34 1319.12,1066.15C1307.05,1036.65 1315.05,1012.02 1326.76,987.832C1327.95,985.376 1329.17,982.925 1330.42,980.477C1331.74,984.607 1332.95,988.754 1333.91,992.93C1332.34,996.131 1330.81,999.355 1329.35,1002.61C1328.17,1005.25 1321.63,1022.34 1321.1,1032.63C1320.98,1034.96 1321.17,1036.96 1321.75,1038.41C1322.43,1040.09 1323.6,1041.11 1325.37,1041.26C1329.98,1041.64 1333.04,1037.86 1334.91,1032.61C1337.52,1025.26 1337.89,1015.12 1337.91,1011.55C1337.94,1005.33 1337.08,999.206 1335.71,993.15C1344.12,976.069 1353.78,959.618 1361.28,942.054C1368.66,924.763 1373.45,906.616 1380.2,889.117C1378.65,899.849 1377.42,910.52 1374.91,919.872C1371.05,934.228 1364.05,947.703 1357.55,961.284C1350.99,974.995 1344.93,988.814 1343.03,1003.72C1342.97,1004.19 1343.3,1004.62 1343.77,1004.68C1344.24,1004.74 1344.67,1004.41 1344.73,1003.94C1346.61,989.211 1352.61,975.567 1359.09,962.022C1365.64,948.347 1372.67,934.772 1376.56,920.316C1379.64,908.865 1380.81,895.444 1382.96,882.338C1391.46,862.794 1404.02,845.378 1418.26,829.488C1419.3,829.175 1420.36,828.907 1421.42,828.689C1425.87,827.775 1430.65,827.472 1435.21,826.582C1439.93,825.662 1444.41,824.116 1448.11,820.74C1454.52,814.878 1457.37,806.409 1460.67,798.313C1462.09,794.848 1463.59,791.453 1465.53,788.385C1465.75,788.309 1465.97,788.236 1466.19,788.167C1467.75,790.365 1469.52,792.193 1471.53,793.506C1474.11,795.196 1477.76,795.323 1479.12,791.92C1479.75,790.346 1479.15,789.003 1477.96,787.963C1476.47,786.659 1473.98,785.883 1472.61,785.753C1470.7,785.571 1468.86,785.733 1467.07,786.153C1469.25,783.271 1471.95,780.781 1475.53,778.946C1482.69,775.276 1490.78,775.763 1499.02,776.481C1507.54,777.223 1516.23,778.218 1524.29,775.546C1539.15,770.621 1552.33,758.984 1560.61,745.921C1563.92,740.691 1566.86,734.987 1571.51,730.804C1571.79,730.822 1572.07,730.838 1572.36,730.849C1572.67,730.863 1573.89,730.669 1575.22,730.291C1576.55,729.915 1577.98,729.358 1578.78,728.723C1579.42,728.207 1579.71,727.599 1579.65,727.016C1579.61,726.616 1579.42,726.179 1578.93,725.76C1578.27,725.185 1577.32,725.111 1576.27,725.462C1574.49,726.057 1572.32,727.913 1571.57,728.512C1571.35,728.687 1571.13,728.865 1570.92,729.046C1566.65,728.689 1562.76,727.635 1558.86,727.023C1557.73,726.844 1556.59,726.702 1555.44,726.622C1555.7,725.979 1555.9,725.303 1556.04,724.589C1556.51,722.064 1556.06,718.999 1554.91,715.861C1553.22,711.272 1550.05,706.516 1546.22,703.115C1541.83,699.216 1536.59,697.122 1531.74,698.817C1532.22,695.515 1532.4,692.176 1532.01,689.184C1531.25,683.37 1528.38,678.825 1521.63,678.013C1519.97,677.813 1518.56,678.111 1517.37,678.756C1517,677.459 1516.55,676.236 1516.03,675.178C1514.8,672.686 1513.1,671.099 1510.96,671.131C1508.45,671.168 1505.94,672.914 1503.61,675.342C1500.39,678.703 1497.49,683.339 1495.29,685.631C1487.4,693.871 1476.57,702.537 1468.1,712.409C1459.48,722.454 1453.29,733.745 1454.82,747.044C1455.71,754.78 1457.25,767.088 1460.85,777.348C1461.99,780.578 1463.33,783.604 1464.92,786.233ZM1379.94,1131.92C1380.99,1136.43 1382.35,1141.05 1384.07,1145.01C1385.62,1148.57 1387.47,1151.59 1389.69,1153.48C1391.76,1155.23 1394.17,1155.95 1396.96,1155.05C1399.75,1154.15 1401.32,1153.04 1401.86,1151.65C1402.23,1150.69 1402.05,1149.63 1401.52,1148.51C1400.91,1147.22 1399.85,1145.87 1398.47,1144.49C1394.06,1140.07 1386.55,1135.43 1379.94,1131.92ZM1406.79,1004.06C1403.09,1002.87 1399.21,1002.09 1395.17,1001.8C1386.24,1001.14 1378.07,1004.27 1370.79,1009.31C1359.72,1016.97 1350.69,1029.05 1344.15,1039.27C1334.36,1054.58 1329.97,1070.89 1329.35,1087.44C1338.44,1103.37 1350.65,1117.48 1367.85,1124.48C1367.85,1124.48 1370.12,1125.39 1370.12,1125.39C1371.96,1126.11 1374.56,1127.28 1377.51,1128.76C1376.14,1122.02 1375.42,1116 1375.14,1113.33C1373.14,1094.27 1375.03,1060.86 1385.13,1034.82C1390.15,1021.88 1397.21,1010.76 1406.79,1004.06ZM1452.12,1055.06C1452.12,1055.16 1452.11,1055.26 1452.11,1055.36C1451.55,1067.69 1447.61,1078.77 1444.94,1090.67C1444.56,1092.37 1442.16,1105.09 1443.94,1111.32C1444.33,1112.66 1444.87,1113.68 1445.79,1114.05C1446.38,1114.29 1447.1,1114.23 1447.98,1113.88C1452.36,1112.15 1454.69,1107.22 1455.96,1101.42C1457.94,1092.36 1457.21,1081.14 1456.66,1075.64C1455.98,1068.97 1454.44,1061.97 1452.12,1055.06ZM1449.95,1044.88C1448.86,1034.59 1445.85,1021.34 1440.3,1011.79C1435.29,1003.18 1428.19,997.573 1418.42,1000.35C1415.67,1001.13 1413.08,1002.24 1410.65,1003.63C1418.79,1006.85 1426.04,1012.02 1432.3,1018.44C1439.62,1025.94 1445.57,1035.13 1449.95,1044.88ZM1334.5,995.624C1333.27,998.171 1332.07,1000.73 1330.91,1003.31C1329.75,1005.9 1323.33,1022.64 1322.81,1032.72C1322.7,1034.76 1322.83,1036.51 1323.34,1037.77C1323.75,1038.8 1324.43,1039.46 1325.52,1039.56C1327.36,1039.71 1328.87,1038.99 1330.11,1037.71C1331.45,1036.33 1332.48,1034.32 1333.3,1032.04C1335.84,1024.89 1336.18,1015.02 1336.2,1011.54C1336.23,1006.17 1335.57,1000.87 1334.5,995.624ZM1357.53,873.264C1356.16,874.656 1355.16,875.602 1354.92,875.804C1354.46,876.197 1353.99,876.586 1353.52,876.978C1338.72,889.382 1321.97,901.089 1319.59,921.695C1317.82,936.936 1322.43,951.578 1327.43,966.243C1328.55,969.511 1329.68,972.781 1330.77,976.059C1341.42,955.461 1353.01,934.706 1355.54,911.071C1356.01,906.741 1355.67,888.104 1357.53,873.264ZM1414.95,830.646C1408.79,833.113 1403.16,837.135 1398.77,842.003C1390.61,851.066 1386.68,863.013 1384.17,875.638C1392.15,859.262 1402.89,844.387 1414.95,830.646ZM1360.03,868.176C1362.88,865.044 1365.96,861.334 1367.47,858.461C1367.84,857.762 1368.11,857.119 1368.25,856.552C1368.36,856.083 1368.4,855.688 1368.22,855.397C1368.06,855.13 1367.73,855.02 1367.24,854.966C1365.78,854.804 1364.61,855.685 1363.6,857.199C1362.43,858.961 1361.51,861.548 1360.77,864.641C1360.5,865.759 1360.25,866.942 1360.03,868.176ZM1462.89,789.52C1462.39,789.768 1461.9,790.034 1461.41,790.312C1457.9,792.326 1454.67,795.043 1451.64,797.448C1446.73,801.347 1441.94,805.386 1437.42,809.735C1431.59,815.35 1425.86,821.151 1420.35,827.17C1420.59,827.116 1420.83,827.064 1421.07,827.015C1425.53,826.099 1430.31,825.796 1434.88,824.905C1439.3,824.044 1443.5,822.634 1446.95,819.478C1453.18,813.787 1455.88,805.527 1459.09,797.666C1460.24,794.86 1461.45,792.105 1462.89,789.52ZM1467.95,787.709C1469.29,789.487 1470.78,790.976 1472.46,792.075C1474.17,793.193 1476.63,793.537 1477.54,791.285C1477.86,790.464 1477.46,789.793 1476.84,789.251C1475.62,788.183 1473.57,787.561 1472.45,787.455C1470.9,787.308 1469.4,787.412 1467.95,787.709ZM1515.91,679.828C1515.53,678.413 1515.06,677.074 1514.5,675.934C1513.61,674.136 1512.53,672.817 1510.99,672.84C1508.87,672.871 1506.81,674.472 1504.85,676.525C1501.63,679.885 1498.73,684.522 1496.53,686.814C1488.65,695.033 1477.85,703.674 1469.4,713.522C1461.09,723.197 1455.04,734.039 1456.52,746.849C1457.39,754.489 1458.9,766.648 1462.46,776.781C1463.47,779.65 1464.64,782.358 1466.01,784.744C1468.28,781.825 1471.09,779.304 1474.75,777.425C1482.2,773.608 1490.6,774.031 1499.16,774.778C1507.45,775.5 1515.91,776.523 1523.75,773.923C1538.25,769.119 1551.09,757.749 1559.16,745.006C1562.29,740.074 1565.12,734.754 1569.26,730.591C1565.53,730.14 1562.07,729.256 1558.6,728.711C1557.26,728.501 1555.92,728.343 1554.57,728.285C1552.65,731.264 1549.25,733.406 1545.2,735.091C1541.13,736.789 1536.43,738.043 1532.14,739.348C1528.76,742.77 1525.6,746.48 1522.11,749.769C1521.52,750.322 1518.09,753.696 1515.59,754.716C1514.06,755.34 1512.82,755.134 1512.19,753.926C1511.56,752.712 1511.93,751.147 1513.03,749.546C1515.14,746.454 1519.85,743.054 1521.24,742.063C1523.31,740.596 1526.23,739.439 1529.52,738.376C1530.1,738.187 1530.7,738.001 1531.3,737.816C1535.21,733.902 1539.41,730.371 1544.69,728.241C1547.83,726.974 1550.76,726.536 1553.6,726.552C1553.95,725.848 1554.21,725.092 1554.36,724.277C1554.78,722.011 1554.33,719.266 1553.3,716.45C1551.71,712.108 1548.7,707.61 1545.08,704.393C1541.19,700.937 1536.59,698.928 1532.29,700.432C1531.94,700.557 1531.64,700.749 1531.38,700.997C1530.92,703.484 1530.33,705.899 1529.72,708.071C1529.74,712.483 1530.5,717.391 1530.13,719.693C1530.03,720.282 1529.12,724.097 1527.83,725.611C1527.32,726.203 1526.74,726.497 1526.15,726.48C1525.74,726.469 1525.3,726.31 1524.86,725.898C1523.99,725.076 1523.66,723.731 1523.76,722.139C1523.97,719.043 1525.77,714.928 1526.34,713.225C1526.83,711.776 1527.43,709.93 1528.02,707.847C1528.02,707.274 1528.03,706.711 1528.06,706.163C1528.15,704.465 1528.41,702.912 1528.93,701.68C1529.16,701.115 1529.45,700.614 1529.8,700.187C1530.44,696.528 1530.75,692.745 1530.32,689.406C1529.66,684.391 1527.25,680.41 1521.43,679.71C1519.99,679.537 1518.8,679.848 1517.83,680.478C1518.91,685.025 1519.29,689.964 1519.45,691.757C1521.39,713.94 1516.2,734.067 1503.82,752.633C1502.32,754.89 1495.31,764.012 1489.59,768.509C1488.03,769.73 1486.56,770.614 1485.3,770.982C1484.29,771.28 1483.39,771.254 1482.65,770.908C1481.94,770.575 1481.6,769.991 1481.58,769.209C1481.56,768.673 1481.73,768.007 1482.05,767.278C1483.3,764.43 1487.01,760.315 1487.55,759.739C1496.38,750.267 1507.27,743.154 1512.55,730.818C1515.56,723.778 1515.67,717.022 1515,710.243C1514.31,703.303 1512.81,696.337 1512.65,689.026C1512.58,685.726 1513.62,682.008 1515.91,679.828ZM1509.01,740.226C1503.25,747.903 1495.46,753.757 1488.8,760.905C1488.3,761.446 1484.79,765.293 1483.61,767.967C1483.44,768.347 1483.32,768.697 1483.29,769.001C1483.28,769.156 1483.25,769.299 1483.38,769.36C1483.78,769.548 1484.27,769.504 1484.82,769.342C1485.91,769.022 1487.18,768.227 1488.53,767.165C1494.11,762.782 1500.93,753.885 1502.4,751.685C1504.9,747.931 1507.11,744.112 1509.01,740.226ZM1528.78,740.422C1526.2,741.306 1523.91,742.264 1522.23,743.456C1520.91,744.394 1516.43,747.584 1514.44,750.51C1514.06,751.062 1513.78,751.599 1513.65,752.106C1513.55,752.48 1513.55,752.83 1513.71,753.139C1513.81,753.334 1514,753.364 1514.21,753.341C1514.71,753.287 1515.29,753.009 1515.9,752.644C1518.06,751.368 1520.46,748.968 1520.94,748.524C1523.66,745.96 1526.19,743.153 1528.78,740.422ZM1552.48,728.281C1550.19,728.376 1547.83,728.816 1545.33,729.827C1541.29,731.455 1537.9,733.932 1534.8,736.774C1538.11,735.798 1541.51,734.781 1544.55,733.514C1547.81,732.153 1550.67,730.52 1552.48,728.281ZM1577.92,727.169C1577.89,727.135 1577.85,727.087 1577.82,727.055C1577.69,726.943 1577.51,726.942 1577.32,726.962C1576.97,727.001 1576.58,727.151 1576.17,727.349C1575.34,727.757 1574.49,728.371 1573.8,728.907C1574.81,728.67 1576.14,728.267 1577.1,727.77C1577.37,727.627 1577.61,727.479 1577.79,727.318C1577.84,727.277 1577.89,727.212 1577.92,727.169ZM1528.25,712.892C1528.15,713.198 1528.06,713.491 1527.96,713.769C1527.49,715.172 1526.13,718.272 1525.63,721.004C1525.48,721.839 1525.4,722.635 1525.48,723.324C1525.55,723.866 1525.69,724.334 1526.03,724.651C1526.1,724.712 1526.14,724.766 1526.2,724.772C1526.31,724.78 1526.37,724.672 1526.46,724.579C1526.62,724.405 1526.78,724.176 1526.92,723.916C1527.8,722.376 1528.37,719.862 1528.44,719.422C1528.67,718.001 1528.45,715.575 1528.25,712.892ZM1516.39,681.82C1516.27,681.979 1516.15,682.145 1516.04,682.316C1514.83,684.195 1514.31,686.723 1514.36,688.988C1514.52,696.254 1516.01,703.177 1516.7,710.074C1516.86,711.727 1516.98,713.377 1517.02,715.03C1518.2,707.577 1518.44,699.876 1517.74,691.906C1517.6,690.281 1517.29,685.972 1516.39,681.82Z"/>

</g>

</svg>