<?xml version="1.0" ?>
<!DOCTYPE svg  PUBLIC '-//W3C//DTD SVG 1.1//EN'  'http://www.w3.org/Graphics/SVG/1.1/DTD/svg11.dtd'>
<!-- Uploaded to: SVG Repo, www.svgrepo.com, Generator: SVG Repo Mixer Tools -->
<svg fill="#000000" width="800px" height="800px" viewBox="0 0 6000 6000" style="fill-rule:evenodd;clip-rule:evenodd;stroke-linejoin:round;stroke-miterlimit:2;" version="1.1" xml:space="preserve" xmlns="http://www.w3.org/2000/svg" xmlns:serif="http://www.serif.com/" xmlns:xlink="http://www.w3.org/1999/xlink">
<g transform="matrix(7.51266,0,0,7.51266,-7836.95,-4124.39)">
<path d="M1539.51,716.838C1537.47,715.406 1535.26,714.475 1532.93,713.959C1530.68,712.687 1528.34,711.226 1526.11,710.042C1523.31,708.549 1520.67,707.508 1518.64,707.626C1513.98,707.895 1509.47,710.631 1505.01,713.461C1504.99,712.751 1504.95,712.048 1504.9,711.35C1504.22,702.042 1501.24,693.708 1495.62,689.721C1488.55,684.709 1480.64,688.762 1477.58,696.03C1475.88,700.064 1475.44,704.438 1475.15,708.799C1474.61,708.179 1474.08,707.558 1473.54,706.94C1469.22,702.019 1464.6,697.368 1457.67,695.893C1448.78,694.003 1440.27,699.723 1438.11,708.45C1436.67,714.275 1437.74,720.392 1440.46,725.395C1439.48,725.86 1438.57,726.437 1437.73,727.135C1433.69,730.496 1431.33,736.717 1432.04,746.839C1432.55,754.065 1434.98,760.992 1437.21,767.818C1439.13,773.73 1440.91,780.134 1443.42,786.049C1442.03,786.035 1440.64,785.971 1439.26,785.855C1432.86,785.314 1426.71,783.637 1421.34,780.418C1415.5,768.094 1411.56,754.855 1409,741.435C1410.23,738.412 1411.82,735.552 1413.69,732.981C1416.69,728.863 1421.56,724.249 1424.22,719.353C1425.63,716.751 1426.44,714.066 1426.13,711.337C1425.82,708.606 1424.41,705.808 1421.29,703.003C1419.81,701.677 1418.42,701.187 1417.16,701.273C1415.32,701.399 1413.64,702.81 1412.25,705.162C1407.48,713.25 1405.68,732.753 1406.33,736.691C1406.58,738.218 1406.85,739.744 1407.13,741.268C1403.31,751.058 1403.16,762.381 1409.25,771.362C1412.24,775.771 1415.88,779.159 1419.95,781.684C1424.2,790.567 1429.43,798.972 1435.82,806.635C1437.58,808.749 1443.3,815.154 1448.93,819.033C1446.65,823.645 1444.79,828.197 1444.14,830.435C1438.25,850.6 1438.02,870.376 1441.71,890.543C1439.87,887.087 1438.06,883.6 1436.33,880.059C1427.12,861.297 1420.64,841.401 1413.17,821.924C1403.8,797.503 1393.21,771.672 1373.79,753.384C1365.9,745.963 1356.57,740.281 1348.28,733.319C1346.97,731.166 1345.55,729.097 1344,727.132C1343.73,726.784 1341.43,724.155 1340.09,723.594C1339.35,723.282 1338.75,723.431 1338.36,723.857C1338.11,724.135 1337.98,724.489 1338.01,724.915C1338.04,725.254 1338.19,725.677 1338.46,726.126C1339.21,727.374 1340.94,729.008 1341.25,729.315C1343.05,731.143 1344.95,732.861 1346.9,734.506C1355.71,749.09 1359.55,767.472 1367,782.509C1377.45,803.603 1387.41,825.01 1389.72,848.732C1391.27,864.681 1389.26,881.308 1393.97,896.854C1396.11,903.893 1400.18,909.197 1404.53,914.288C1408.76,919.234 1413.25,923.976 1416.34,930.023C1418.9,935.011 1418.34,941.001 1418.36,946.738C1418.37,952.884 1419.03,958.741 1424.02,963.033C1427.72,966.211 1431.4,967.281 1434.76,966.925C1438.13,966.57 1441.2,964.777 1443.71,962.125C1444.09,961.722 1444.45,961.3 1444.81,960.859C1446.46,964.223 1447.9,967.666 1448.95,971.259C1449.73,973.913 1449.71,987.697 1452.05,995.053C1452.6,996.777 1453.29,998.168 1454.11,999.057C1455.1,1000.14 1456.3,1000.57 1457.7,1000.18C1459.9,999.562 1461.41,997.404 1462.32,994.446C1464.21,988.251 1463.61,978.506 1463.49,975.374C1462.56,950.871 1452.24,926.286 1446.19,902.534C1456.45,921.172 1466.64,939.527 1471.15,961.11C1478.08,994.36 1471.8,1024.36 1469.66,1056.76C1465.23,1046.38 1459.36,1037.32 1452.51,1028.46C1447.49,1013.52 1441.51,998.896 1432.45,985.933C1431.15,984.073 1426.45,976.346 1422.08,973.757C1419.83,972.43 1417.66,972.328 1415.89,974.313C1414.03,976.401 1414.06,979.575 1415.3,983.13C1417.93,990.686 1425.93,1000.11 1428.52,1003.06C1436.62,1012.31 1444.22,1020.7 1450.89,1029.29C1452.02,1032.66 1453.1,1036.06 1454.15,1039.45C1469.64,1089.14 1459.18,1120.38 1450.31,1166.73C1446.47,1170.27 1442.5,1173.91 1439.19,1177.67C1433.51,1184.13 1429.81,1190.97 1431.56,1198.23C1432.41,1201.72 1433.96,1203.78 1435.89,1204.81C1438.39,1206.13 1441.64,1205.75 1445.14,1204.2C1444.21,1214.29 1443.45,1224.39 1442.27,1234.46C1442.21,1234.95 1442.57,1235.4 1443.06,1235.46C1443.56,1235.52 1444,1235.16 1444.06,1234.67C1445.28,1224.21 1446.06,1213.73 1447.03,1203.27C1456.53,1198.12 1467.36,1185.72 1469.45,1181.13C1482.66,1152.18 1481.56,1115.4 1477.27,1084.65C1476.03,1075.76 1473.97,1067.87 1471.22,1060.64C1473.08,1026.62 1480.15,995.444 1472.91,960.743C1467.91,936.783 1455.96,916.771 1444.63,895.97C1439.85,874.083 1439.5,852.742 1445.87,830.939C1446.49,828.791 1448.26,824.44 1450.43,820.012C1450.96,820.328 1451.48,820.617 1451.99,820.873C1454.86,822.307 1457.54,822.671 1459.51,821.406C1460.83,820.562 1461.9,818.97 1462.46,816.327C1463.08,813.436 1463.47,809.433 1461.96,806.714C1461.5,805.887 1460.92,805.453 1460.3,805.288C1459.71,805.133 1459.07,805.211 1458.37,805.55C1457.59,805.934 1456.71,806.688 1455.81,807.736C1453.86,809.979 1451.69,813.629 1449.74,817.417C1444.35,813.658 1438.89,807.512 1437.2,805.483C1431.47,798.606 1426.69,791.123 1422.72,783.233C1427.75,785.775 1433.33,787.16 1439.11,787.648C1440.8,787.791 1442.5,787.857 1444.22,787.852C1445.09,789.738 1446.04,791.561 1447.11,793.288C1452.88,802.588 1462.67,803.027 1472.02,799.594C1471.26,801.806 1470.88,804.208 1470.94,806.828C1471.21,819.85 1485.11,826.677 1496.68,826.512C1513.2,826.277 1528.82,814.015 1537.82,800.935C1541.64,795.392 1544.21,787.478 1544.15,780.546C1544.12,775.783 1542.83,771.485 1539.96,768.645C1538.35,767.046 1536.22,765.89 1533.5,765.385C1535.38,764.072 1537.01,762.666 1538.32,761.138C1543.15,755.517 1547.1,744.204 1546.97,734.118C1546.89,727.963 1545.29,722.278 1541.55,718.538C1541.95,718.435 1542.32,718.276 1542.65,718.056C1543.97,717.182 1544.88,715.264 1544.83,711.708C1544.72,704.606 1541.9,697.748 1539.29,691.268C1537.3,686.359 1535.29,681.446 1532.75,676.795C1530.93,673.465 1528.91,670.193 1526.31,667.412C1522.43,663.269 1518.64,661.472 1514.94,661.206C1509.48,660.813 1504.16,663.828 1498.94,667.888C1493.92,671.786 1488.98,676.631 1483.99,680.029C1480.8,682.205 1477.61,683.787 1474.36,684.049C1467.85,684.576 1461.2,680.318 1454.53,676.696C1447.45,672.847 1440.36,669.717 1433.5,672.688C1427.6,675.246 1424.62,680.28 1423.54,685.999C1422.49,691.569 1423.26,697.791 1424.83,702.886C1424.97,703.361 1425.48,703.628 1425.95,703.482C1426.43,703.336 1426.69,702.832 1426.55,702.357C1425.06,697.522 1424.31,691.618 1425.31,686.332C1426.28,681.194 1428.91,676.638 1434.21,674.339C1440.57,671.585 1447.11,674.709 1453.67,678.278C1460.66,682.073 1467.69,686.395 1474.5,685.844C1478.04,685.558 1481.54,683.884 1485.01,681.516C1490.02,678.098 1495,673.23 1500.05,669.309C1504.88,665.549 1509.76,662.637 1514.82,663.002C1518.13,663.241 1521.51,664.919 1524.99,668.642C1527.49,671.312 1529.42,674.461 1531.17,677.658C1533.67,682.248 1535.66,687.097 1537.62,691.942C1540.15,698.22 1542.92,704.853 1543.03,711.735C1543.05,713.16 1542.92,714.268 1542.64,715.106C1542.41,715.789 1542.09,716.268 1541.66,716.554C1541.08,716.937 1540.35,716.988 1539.51,716.838ZM1449.75,1169.69C1446.53,1172.67 1443.31,1175.72 1440.55,1178.86C1435.29,1184.83 1431.69,1191.09 1433.31,1197.81C1434,1200.64 1435.16,1202.38 1436.74,1203.22C1439.04,1204.44 1442.07,1203.75 1445.33,1202.12C1446.21,1192.81 1447.25,1183.51 1448.91,1174.26C1449.19,1172.72 1449.47,1171.2 1449.75,1169.69ZM1471,1065.39C1470.96,1066.27 1470.93,1067.15 1470.91,1068.04C1470.52,1081.36 1472.51,1096.19 1472.93,1110.78C1473.37,1125.54 1472.2,1140.07 1465.51,1152.6C1463.72,1155.94 1460.65,1159.36 1457.07,1162.86C1455.45,1164.43 1453.72,1166.03 1451.97,1167.65C1451.54,1169.92 1451.11,1172.23 1450.69,1174.58C1449.11,1183.38 1448.09,1192.22 1447.24,1201.08C1456.12,1195.82 1465.88,1184.64 1467.82,1180.38C1480.89,1151.73 1479.73,1115.33 1475.49,1084.9C1474.5,1077.81 1472.98,1071.37 1471,1065.39ZM1454.24,1033.74C1454.79,1035.46 1455.34,1037.19 1455.87,1038.91C1471.2,1088.08 1461.35,1119.3 1452.54,1164.67C1453.66,1163.63 1454.76,1162.59 1455.81,1161.57C1459.25,1158.22 1462.2,1154.96 1463.92,1151.75C1470.47,1139.49 1471.56,1125.27 1471.14,1110.83C1470.71,1096.2 1468.72,1081.34 1469.11,1067.99C1469.18,1065.62 1469.28,1063.27 1469.41,1060.93C1465.56,1050.89 1460.37,1042.14 1454.24,1033.74ZM1449.15,1024.22C1444.52,1011.13 1438.96,998.392 1430.97,986.964C1429.9,985.432 1426.47,979.731 1422.86,976.569C1420.85,974.808 1418.82,973.734 1417.24,975.511C1415.76,977.172 1416.01,979.709 1417,982.538C1419.56,989.877 1427.36,999.008 1429.87,1001.88C1436.75,1009.72 1443.25,1016.96 1449.15,1024.22ZM1350.66,737.544C1357.96,751.453 1361.8,767.964 1368.61,781.71C1379.16,802.999 1389.18,824.616 1391.51,848.557C1393.05,864.39 1391.01,880.899 1395.7,896.332C1397.76,903.116 1401.71,908.211 1405.9,913.119C1410.21,918.17 1414.78,923.027 1417.95,929.202C1420.63,934.438 1420.14,940.711 1420.16,946.734C1420.17,952.348 1420.63,957.747 1425.2,961.667C1428.43,964.449 1431.63,965.446 1434.58,965.135C1437.52,964.823 1440.2,963.215 1442.4,960.889C1442.93,960.324 1443.44,959.717 1443.91,959.074C1440.06,951.585 1435.34,944.438 1431.9,936.853C1426.57,925.107 1423.01,911.944 1420.56,898.881C1415.46,891.968 1411.04,884.646 1408.7,876.262C1408.27,874.734 1405.47,862.597 1406.03,855.637C1406.16,854.012 1406.48,852.652 1407.01,851.715C1407.68,850.531 1408.66,849.921 1409.99,850.032C1410.89,850.107 1411.77,850.636 1412.56,851.605C1413.52,852.784 1414.4,854.668 1415.17,856.963C1418.01,865.461 1419.49,879.766 1419.84,882.56C1420.5,887.675 1421.29,892.91 1422.26,898.161C1424.92,901.745 1427.76,905.217 1430.58,908.677C1438.93,918.949 1447.03,929.114 1449.77,941.55C1451.04,947.304 1449.39,954.122 1445.99,959.235C1447.87,962.955 1449.51,966.764 1450.68,970.754C1451.46,973.403 1451.43,987.164 1453.77,994.507C1454.22,995.933 1454.75,997.101 1455.43,997.837C1455.93,998.38 1456.51,998.639 1457.22,998.441C1458.29,998.143 1459.08,997.285 1459.7,996.127C1460.42,994.802 1460.89,993.093 1461.23,991.228C1462.26,985.391 1461.8,978.054 1461.69,975.443C1460.73,950.187 1449.72,924.85 1443.81,900.429C1443.5,899.144 1443.2,897.862 1442.92,896.578C1440.1,891.409 1437.33,886.192 1434.71,880.852C1425.48,862.041 1418.98,842.096 1411.49,822.568C1402.21,798.394 1391.78,772.797 1372.55,754.695C1365.8,748.336 1357.98,743.249 1350.66,737.544ZM1423.03,902.138C1425.41,913.871 1428.76,925.567 1433.54,936.109C1436.84,943.371 1441.28,950.24 1445.04,957.385C1447.82,952.785 1449.11,946.929 1448.01,941.938C1445.33,929.772 1437.35,919.861 1429.18,909.813C1427.12,907.275 1425.04,904.729 1423.03,902.138ZM1419.83,894.779C1419.14,890.744 1418.56,886.731 1418.06,882.787C1417.7,880.031 1416.26,865.917 1413.46,857.534C1412.78,855.488 1412.02,853.794 1411.16,852.743C1410.74,852.225 1410.32,851.866 1409.84,851.826C1409.26,851.778 1408.87,852.089 1408.58,852.601C1408.15,853.359 1407.93,854.468 1407.82,855.781C1407.28,862.53 1410.02,874.296 1410.43,875.778C1412.38,882.732 1415.79,888.934 1419.83,894.779ZM1531.12,766.92C1528.55,768.465 1525.63,769.886 1522.49,771.237C1516.52,773.812 1509.76,776.148 1503.18,778.688C1501.97,779.593 1500.76,780.519 1499.56,781.457C1491.51,787.739 1483.65,794.483 1474.73,798.486C1474.59,798.55 1474.45,798.613 1474.31,798.674C1473.24,801.1 1472.67,803.787 1472.74,806.79C1472.99,818.801 1485.98,824.864 1496.66,824.712C1512.61,824.485 1527.64,812.549 1536.34,799.914C1539.96,794.652 1542.41,787.141 1542.35,780.561C1542.32,776.315 1541.25,772.456 1538.7,769.925C1536.92,768.166 1534.43,767.077 1531.12,766.92ZM1451.24,818.399C1451.77,818.718 1452.28,819.008 1452.8,819.263C1455,820.362 1457.03,820.86 1458.54,819.89C1459.55,819.244 1460.27,817.972 1460.7,815.95C1461.24,813.437 1461.7,809.952 1460.38,807.588C1460.22,807.291 1460.06,807.086 1459.83,807.027C1459.61,806.967 1459.36,807.06 1459.09,807.204C1458.5,807.522 1457.85,808.124 1457.16,808.915C1455.26,811.109 1453.14,814.691 1451.24,818.399ZM1532.3,715.659C1528.14,714.792 1523.56,715.348 1518.91,716.689C1514.11,718.075 1509.24,720.301 1504.65,722.741C1503.5,733.026 1499.93,742.772 1494.66,747.531C1493.86,748.252 1492.65,748.983 1491.21,749.635C1494.39,754.083 1496.08,758.406 1495.6,761.91C1495.03,766.162 1492.72,769.706 1489.58,772.638C1485.01,776.897 1478.66,779.859 1473.55,781.879C1465.26,785.153 1455.64,787.506 1446.18,787.817C1446.93,789.379 1447.74,790.894 1448.64,792.339C1454.23,801.346 1463.98,801.042 1472.97,797.288C1476.09,790.883 1482.5,786.171 1490.27,782.29C1494.05,780.406 1498.13,778.715 1502.3,777.106C1509.2,771.975 1516.4,767.555 1524.62,765.762C1526.85,765.276 1528.86,765.07 1530.66,765.106C1533.18,763.552 1535.33,761.862 1536.96,759.966C1541.57,754.597 1545.3,743.775 1545.17,734.141C1545.09,727.864 1543.39,722.076 1539.06,718.742C1538.95,718.657 1538.84,718.574 1538.73,718.493C1538.21,718.381 1537.68,718.219 1537.12,718.013C1535.64,717.467 1534,716.618 1532.3,715.659ZM1497,781.184C1494.96,782.05 1492.98,782.951 1491.08,783.9C1484.56,787.157 1478.98,790.98 1475.74,796.019C1483.29,792.275 1490.09,786.624 1497,781.184ZM1441.38,726.95C1440.48,727.362 1439.65,727.882 1438.88,728.519C1435.16,731.613 1433.18,737.395 1433.84,746.713C1434.33,753.792 1436.74,760.573 1438.92,767.26C1440.9,773.356 1442.72,779.988 1445.37,786.039C1454.86,785.842 1464.56,783.494 1472.88,780.204C1477.81,778.258 1483.95,775.427 1488.35,771.322C1491.19,768.677 1493.3,765.502 1493.82,761.669C1494.26,758.419 1492.53,754.448 1489.5,750.332C1486.72,751.346 1483.41,752.016 1480.52,751.859C1476.79,751.657 1473.75,750.11 1472.97,746.54C1472.3,743.479 1473.78,740.689 1476.19,738.294C1476.36,738.13 1476.53,737.968 1476.7,737.809C1473.99,735.77 1471.11,733.874 1468.16,732.216C1467.5,732.697 1466.78,733.161 1466.01,733.605C1456.04,739.312 1446.52,734.898 1441.38,726.95ZM1407.82,744.743C1405.2,753.3 1405.56,762.717 1410.74,770.352C1412.97,773.642 1415.58,776.333 1418.48,778.497C1413.66,767.727 1410.21,756.324 1407.82,744.743ZM1526.99,767.156C1526.35,767.25 1525.69,767.371 1525.01,767.52C1519.29,768.768 1514.09,771.337 1509.13,774.527C1513.51,772.898 1517.82,771.293 1521.78,769.584C1523.6,768.8 1525.35,767.996 1526.99,767.156ZM1478.14,738.925C1477.91,739.136 1477.68,739.352 1477.46,739.571C1475.51,741.5 1474.19,743.692 1474.73,746.157C1475.33,748.887 1477.76,749.907 1480.61,750.062C1483.1,750.197 1485.92,749.676 1488.36,748.853L1488.26,748.731C1485.56,745.388 1482.06,742.017 1478.14,738.925ZM1502.73,723.781C1497.18,726.848 1492.13,730.106 1488.26,732.384C1486.15,733.625 1482.56,735.441 1479.56,737.752C1483.46,740.867 1486.95,744.247 1489.66,747.599C1489.82,747.792 1489.97,747.984 1490.12,748.178C1491.52,747.573 1492.69,746.882 1493.45,746.195C1498.27,741.848 1501.52,733.136 1502.73,723.781ZM1408.43,738.302C1409.51,736.049 1410.79,733.904 1412.24,731.923C1415.19,727.861 1420.01,723.323 1422.64,718.493C1423.87,716.232 1424.61,713.91 1424.34,711.539C1424.07,709.17 1422.79,706.775 1420.08,704.342C1419.07,703.431 1418.15,703.009 1417.28,703.069C1415.93,703.161 1414.82,704.348 1413.8,706.076C1409.21,713.854 1407.48,732.61 1408.1,736.398C1408.21,737.033 1408.32,737.667 1408.43,738.302ZM1476.66,713.194C1476.59,714.212 1476.5,715.222 1476.39,716.221C1475.77,721.755 1474.31,726.926 1469.68,731.008C1472.58,732.685 1475.42,734.583 1478.1,736.615C1481.25,734.12 1485.1,732.153 1487.35,730.833C1491.49,728.395 1496.96,724.856 1502.97,721.608C1503.12,719.978 1503.22,718.338 1503.24,716.707L1503.09,716.801C1497.56,720.235 1492.01,722.875 1486.24,720.482C1482.5,718.928 1479.48,716.233 1476.66,713.194ZM1466.39,731.251C1465.32,730.683 1464.24,730.149 1463.15,729.653C1458.4,727.476 1453.66,726.037 1449.39,725.743C1447.13,725.587 1445,725.753 1443.09,726.315C1447.79,733.323 1456.23,737.133 1465.11,732.043C1465.56,731.787 1465.99,731.523 1466.39,731.251ZM1474.99,711.343C1474.05,710.282 1473.12,709.199 1472.18,708.126C1468.12,703.493 1463.82,699.042 1457.29,697.654C1449.36,695.967 1441.78,701.095 1439.86,708.882C1438.51,714.323 1439.54,720.072 1442.12,724.732C1443.59,724.249 1445.18,723.981 1446.86,723.908C1451.96,723.687 1457.93,725.279 1463.9,728.016C1465.27,728.643 1466.64,729.329 1468,730.067C1472.63,726.244 1474.01,721.298 1474.6,716.019C1474.78,714.482 1474.88,712.918 1474.99,711.343ZM1341.45,726.98L1341.61,727.14C1341.52,727.05 1341.44,726.957 1341.35,726.864L1341.45,726.98ZM1528.5,713.455C1527.41,712.818 1526.32,712.194 1525.26,711.63C1522.81,710.322 1520.53,709.32 1518.75,709.423C1514.04,709.694 1509.54,712.684 1505.05,715.562C1505.05,717.238 1504.98,718.928 1504.85,720.611C1509.24,718.33 1513.86,716.274 1518.41,714.96C1521.85,713.967 1525.26,713.399 1528.5,713.455ZM1503.24,714.583C1503.22,713.539 1503.17,712.504 1503.1,711.48C1502.47,702.776 1499.83,694.918 1494.58,691.189C1488.54,686.912 1481.85,690.527 1479.24,696.729C1477.38,701.132 1477.1,705.955 1476.81,710.709C1479.8,714.07 1482.91,717.149 1486.93,718.819C1492.15,720.986 1497.13,718.382 1502.14,715.272C1502.51,715.044 1502.88,714.814 1503.24,714.583Z"/>
</g>
</svg>