<?xml version="1.0" ?>
<!DOCTYPE svg  PUBLIC '-//W3C//DTD SVG 1.1//EN'  'http://www.w3.org/Graphics/SVG/1.1/DTD/svg11.dtd'>
<!-- Uploaded to: SVG Repo, www.svgrepo.com, Generator: SVG Repo Mixer Tools -->
<svg fill="#000000" width="800px" height="800px" viewBox="0 0 6000 6000" style="fill-rule:evenodd;clip-rule:evenodd;stroke-linejoin:round;stroke-miterlimit:2;" version="1.1" xml:space="preserve" xmlns="http://www.w3.org/2000/svg" xmlns:serif="http://www.serif.com/" xmlns:xlink="http://www.w3.org/1999/xlink">
<g transform="matrix(7.51266,0,0,7.51266,-7614.75,-4215.8)">
<path d="M1425.19,685.277C1421.38,687.539 1417.15,690.348 1414.14,693.344C1409.92,697.549 1408.1,702.133 1412.03,706.206C1414.23,708.495 1416.7,709.774 1419.34,710.26C1419.06,723.25 1422.89,737.131 1430.81,747.418C1435.96,754.111 1441.32,758.12 1445.74,761.994C1446.35,762.535 1446.95,763.073 1447.53,763.616C1446.24,765.547 1445.2,767.746 1444.49,770.318C1441.54,780.88 1443.02,791.371 1445.05,801.878C1447.03,812.169 1449.55,822.475 1448.71,832.887C1447.88,843.335 1443.28,854.232 1440.04,865.121C1436.72,876.28 1434.84,887.43 1439.52,898.094C1439.72,898.549 1440.25,898.756 1440.71,898.557C1441.16,898.357 1441.37,897.825 1441.17,897.371C1436.66,887.106 1438.57,876.375 1441.77,865.634C1445.04,854.622 1449.66,843.596 1450.51,833.03C1451.35,822.457 1448.83,811.988 1446.82,801.537C1444.84,791.304 1443.35,781.088 1446.22,770.801C1446.85,768.556 1447.73,766.614 1448.83,764.896C1453.42,769.642 1456.18,775.177 1454.96,786.206C1451.35,819.071 1455.84,854.507 1449.37,886.677C1447.8,894.458 1444.13,901.324 1440.24,908.112C1436.28,915.034 1432.08,921.875 1429.55,929.471C1427.53,935.542 1427.29,941.715 1427.38,947.929C1427.47,954.001 1427.87,960.111 1427.11,966.196C1425.83,976.557 1422.3,986.436 1420.34,996.637C1410.58,997.25 1401.76,1002.11 1396.74,1013.19C1394.44,1018.27 1394.6,1023.86 1396.41,1029.87C1398.16,1035.71 1401.48,1041.98 1405.51,1048.58C1417.39,1068.06 1435.6,1090.5 1437.25,1113.91C1437.66,1119.79 1437.3,1125.58 1436.52,1131.33C1428.04,1104.34 1411.65,1078.33 1388.34,1043.89C1387.59,1042.8 1386.41,1041.09 1384.88,1038.96C1383.99,1034.71 1382.37,1030.55 1379.78,1026.5C1377.04,1022.24 1372.06,1018.52 1366.15,1015.24C1359.51,1007.64 1352.24,1000.26 1345.5,995.397C1341.68,992.642 1338.02,990.686 1334.73,989.896C1331.24,989.056 1328.13,989.509 1325.63,991.599C1324.39,992.632 1323.84,993.682 1323.79,994.694C1323.74,995.716 1324.19,996.756 1325.14,997.778C1326.2,998.912 1327.93,1000.07 1330.15,1001.24C1337.55,1005.14 1350.62,1009.4 1361.63,1014.89C1362.79,1015.47 1363.93,1016.07 1365.03,1016.67C1372.45,1025.18 1379.07,1033.96 1383.22,1039.73C1385.64,1051.83 1381.94,1064.66 1378.42,1077.66C1373.55,1095.63 1368.98,1113.9 1380.06,1131.04C1387.93,1143.22 1398.81,1151.42 1410.13,1159.09C1416.33,1163.3 1422.68,1167.35 1428.71,1171.84C1427.86,1178.15 1427.5,1184.5 1428.1,1190.95C1428.54,1195.82 1430.6,1204.79 1434.87,1209.65C1435.77,1210.68 1436.78,1211.53 1437.89,1212.14C1436.11,1222.23 1433.65,1233.05 1430.48,1244.81C1430.35,1245.29 1430.63,1245.78 1431.11,1245.91C1431.59,1246.04 1432.08,1245.76 1432.21,1245.28C1435.36,1233.62 1437.81,1222.88 1439.6,1212.85C1439.81,1212.92 1440.04,1212.97 1440.26,1213.02C1442.33,1213.44 1444.7,1213.08 1447.38,1211.55C1450.74,1209.63 1452.57,1207.25 1453.36,1204.68C1454.13,1202.12 1453.87,1199.35 1452.95,1196.58C1451.18,1191.3 1447,1186.03 1443.65,1182.49C1443.46,1182.29 1443.27,1182.09 1443.08,1181.89C1443.71,1164.98 1441.87,1149.96 1437.73,1135.37C1438.9,1128.25 1439.56,1121.08 1439.05,1113.79C1437.38,1090.1 1419.07,1067.35 1407.04,1047.65C1403.1,1041.19 1399.85,1035.07 1398.13,1029.35C1396.46,1023.79 1396.25,1018.63 1398.38,1013.94C1402.99,1003.74 1411.05,999.184 1420.01,998.475C1419.58,1001 1419.25,1003.54 1419.1,1006.12C1418.6,1014.37 1419.57,1042.79 1425.26,1060.02C1426.75,1064.56 1428.59,1068.33 1430.78,1070.81C1432.34,1072.58 1434.1,1073.7 1436.05,1074.06C1439.24,1074.64 1442.03,1072.75 1444.52,1069.89C1446.56,1067.53 1448.43,1064.53 1450.25,1062.02C1451.4,1060.44 1452.52,1059.05 1453.66,1058.19C1456.04,1056.42 1460.45,1054.83 1465.65,1053.11C1473.67,1050.45 1483.52,1047.52 1490.89,1043.38C1499.47,1038.55 1504.7,1032.08 1500.64,1022.72C1499.64,1020.39 1498.32,1019.22 1496.82,1018.84C1495.36,1018.47 1493.66,1018.87 1491.79,1019.92C1488.48,1021.79 1484.51,1025.75 1480.13,1030.13C1474.77,1035.51 1468.77,1041.54 1462.62,1044.9C1458.69,1047.06 1454.7,1048.11 1450.77,1047.07C1446.51,1045.94 1442.37,1042.35 1438.44,1035.25C1432.42,1024.37 1432.76,1012.63 1435.86,1000.72C1439.63,1001.99 1443.3,1003.74 1446.72,1005.84C1446.23,1010.45 1444.99,1015.22 1444.68,1019.71C1444.43,1023.26 1444.75,1026.63 1446.31,1029.65C1447.88,1032.67 1450.7,1035.35 1455.56,1037.45C1460.56,1039.61 1463.65,1039.19 1465.36,1037.61C1466.98,1036.12 1467.49,1033.44 1467.15,1030.37C1466.66,1026.12 1464.61,1021.09 1462.38,1017.87C1459,1012.98 1454.16,1008.49 1448.58,1004.9C1448.75,1002.87 1448.75,1000.87 1448.46,998.945C1447.57,993.176 1444.86,988.165 1441.99,983.188C1448.25,968.139 1456.18,953.319 1459,940.032C1460.08,934.916 1461.3,924.784 1464.8,917.535C1466.99,913 1470.07,909.584 1474.74,909.646C1478.19,909.691 1480.46,910.67 1481.76,912.462C1483.08,914.289 1483.37,916.887 1483.03,919.98C1482.33,926.16 1479.01,934.211 1474.96,942.347C1468.82,954.717 1460.99,967.266 1457.88,973.842C1457.04,975.608 1456.54,976.981 1456.45,977.841C1456.38,978.467 1456.51,978.924 1456.71,979.221C1456.98,979.595 1457.38,979.832 1457.99,979.811C1458.43,979.795 1459.08,979.59 1459.94,979.101C1471.99,972.236 1482.32,957.733 1488.47,941.65C1494.62,925.562 1496.57,907.914 1491.99,894.813C1489.37,887.314 1485.89,880.177 1484.64,872.249C1484.29,870.071 1483.96,867.809 1483.72,865.515C1486.21,859.813 1488.26,854.353 1489.06,850.365C1489.47,848.373 1489.56,846.721 1489.3,845.545C1489.09,844.541 1488.62,843.831 1487.94,843.416C1487.23,842.98 1486.53,843.084 1485.87,843.562C1484.96,844.228 1484.17,845.895 1483.93,846.454C1481.42,852.252 1481.28,858.85 1481.89,865.229C1476.75,876.937 1469.76,889.574 1467.9,892.291C1460.32,903.379 1450.46,913.948 1442.99,925.468C1435.41,937.16 1430.3,949.826 1432.34,964.945C1433.22,971.532 1436.37,977.085 1439.55,982.573L1439.99,983.321C1439.47,984.574 1438.97,985.828 1438.48,987.082C1437.01,990.866 1435.69,994.656 1434.63,998.435C1432.89,997.918 1431.15,997.5 1429.4,997.193C1426.98,996.765 1424.56,996.549 1422.17,996.572C1424.14,986.469 1427.63,976.681 1428.9,966.417C1429.66,960.25 1429.27,954.058 1429.18,947.903C1429.1,941.891 1429.3,935.914 1431.26,930.04C1433.75,922.558 1437.9,915.826 1441.8,909.006C1445.79,902.051 1449.53,895.006 1451.13,887.032C1457.62,854.811 1453.13,819.32 1456.75,786.403C1458.08,774.402 1454.97,768.517 1449.88,763.389C1451.66,761.058 1453.84,759.157 1456.24,757.437C1456.89,759.672 1457.84,761.826 1459.09,763.608C1461.77,767.421 1465.83,769.601 1471.53,767.536C1478.08,765.162 1483.3,759.739 1487.17,753.058C1492.9,743.18 1495.68,730.561 1495.57,721.306C1495.56,721.012 1495.56,720.718 1495.55,720.424C1495.54,720.135 1495.52,719.846 1495.5,719.557C1495.24,714.741 1495.11,710.082 1495.22,706.178C1496.76,705.602 1498.2,704.518 1499.27,703.197C1501.55,700.371 1502.01,696.671 1498.57,694.798C1497.82,694.392 1497.15,694.363 1496.56,694.587C1495.82,694.867 1495.14,695.643 1494.66,696.934C1494.02,698.649 1493.66,701.408 1493.5,704.8C1492.74,704.909 1491.98,704.816 1491.28,704.434C1489.26,703.319 1488.93,701.27 1488.96,699.098C1489,696.531 1489.54,693.773 1489.22,691.695C1488.67,688.111 1486.49,685.609 1483.58,684.007C1479.41,681.701 1473.72,681.302 1469.59,682.167C1466.08,682.904 1461.76,685.523 1457.03,688.894C1450.13,693.802 1442.32,700.301 1434.77,704.513C1430.02,707.167 1425.39,708.934 1421.2,708.681C1421.22,708.273 1421.24,707.864 1421.27,707.456C1421.68,701.623 1423.12,693.204 1426.55,686.549C1429.88,684.599 1432.85,683.084 1434.31,682.253C1434.97,681.879 1436.76,680.123 1437.83,678.599C1438.36,677.847 1438.7,677.13 1438.76,676.633C1438.82,676.179 1438.7,675.815 1438.48,675.545C1438.28,675.295 1437.97,675.089 1437.49,675.039C1437.13,675.003 1436.6,675.062 1435.87,675.303C1431.17,676.849 1427.69,680.611 1425.19,685.277ZM1442.97,1184.39C1442.55,1192.76 1441.53,1201.59 1439.91,1211.07C1440.14,1211.14 1440.38,1211.21 1440.62,1211.26C1442.33,1211.6 1444.27,1211.25 1446.49,1209.98C1449.36,1208.35 1450.96,1206.35 1451.63,1204.15C1452.31,1201.94 1452.04,1199.54 1451.24,1197.15C1449.66,1192.43 1446.05,1187.75 1442.97,1184.39ZM1430.36,1173.08C1429.62,1178.93 1429.34,1184.82 1429.89,1190.79C1430.24,1194.63 1431.63,1201.19 1434.42,1205.94C1435.48,1207.73 1436.73,1209.26 1438.21,1210.24C1439.88,1200.38 1440.88,1191.22 1441.23,1182.56C1437.82,1179.1 1434.16,1175.99 1430.36,1173.08ZM1436.97,1139.63C1436.15,1143.94 1435.19,1148.25 1434.24,1152.54C1432.87,1158.69 1431.52,1164.84 1430.63,1171.04C1434.35,1173.84 1437.94,1176.82 1441.31,1180.11C1441.69,1165.54 1440.21,1152.38 1436.97,1139.63ZM1385.5,1042.96C1386.71,1054.27 1383.41,1066.13 1380.16,1078.13C1375.42,1095.62 1370.8,1113.39 1381.57,1130.07C1389.31,1142.03 1400.02,1150.06 1411.14,1157.6C1417.1,1161.64 1423.18,1165.55 1429,1169.82C1429.89,1163.91 1431.17,1158.03 1432.48,1152.15C1433.7,1146.64 1434.94,1141.12 1435.88,1135.57C1427.82,1107.36 1411.1,1080.73 1386.85,1044.9C1386.49,1044.38 1386.04,1043.73 1385.5,1042.96ZM1434.15,1000.17C1432.47,999.669 1430.78,999.264 1429.09,998.966C1426.65,998.536 1424.22,998.331 1421.84,998.383C1421.39,1000.97 1421.06,1003.58 1420.89,1006.23C1420.4,1014.38 1421.35,1042.44 1426.96,1059.46C1428.37,1063.72 1430.06,1067.29 1432.12,1069.62C1433.39,1071.05 1434.8,1072 1436.37,1072.29C1438.96,1072.76 1441.13,1071.04 1443.16,1068.71C1445.17,1066.39 1447,1063.43 1448.8,1060.96C1450.06,1059.21 1451.32,1057.7 1452.59,1056.75C1455.07,1054.9 1459.66,1053.2 1465.09,1051.4C1473.01,1048.77 1482.74,1045.89 1490.01,1041.81C1497.69,1037.49 1502.63,1031.82 1498.99,1023.43C1498.31,1021.84 1497.5,1020.92 1496.49,1020.62C1495.76,1020.39 1494.95,1020.5 1494.06,1020.84C1493.03,1021.22 1491.92,1021.89 1490.74,1022.77C1487.96,1024.83 1484.82,1027.99 1481.4,1031.4C1475.92,1036.9 1469.78,1043.04 1463.48,1046.48C1459.12,1048.87 1454.67,1049.97 1450.31,1048.81C1445.69,1047.58 1441.12,1043.81 1436.87,1036.12C1430.6,1024.8 1430.92,1012.58 1434.15,1000.17ZM1448.37,1006.9C1447.83,1011.23 1446.77,1015.65 1446.48,1019.83C1446.25,1023.04 1446.49,1026.1 1447.91,1028.82C1449.32,1031.54 1451.9,1033.91 1456.27,1035.79C1458.38,1036.71 1460.09,1037.13 1461.45,1037.15C1462.63,1037.16 1463.52,1036.87 1464.14,1036.29C1465.41,1035.12 1465.63,1032.98 1465.36,1030.57C1464.91,1026.6 1462.99,1021.9 1460.9,1018.89C1457.8,1014.41 1453.42,1010.27 1448.37,1006.9ZM1369.86,1019.58C1374.46,1025.07 1378.61,1030.45 1381.88,1034.86C1381,1032.36 1379.81,1029.9 1378.26,1027.47C1376.4,1024.58 1373.45,1021.97 1369.86,1019.58ZM1361.68,1012.91C1356.02,1006.7 1350.05,1000.9 1344.44,996.857C1340.85,994.261 1337.41,992.391 1334.31,991.646C1331.42,990.952 1328.85,991.256 1326.78,992.982C1326.03,993.603 1325.62,994.179 1325.59,994.787C1325.56,995.383 1325.9,995.952 1326.46,996.549C1327.41,997.572 1328.99,998.59 1330.99,999.648C1338.22,1003.46 1350.85,1007.6 1361.68,1012.91ZM1441.12,985.294C1440.8,986.107 1440.47,986.92 1440.16,987.733C1438.7,991.482 1437.39,995.236 1436.34,998.977C1439.98,1000.21 1443.54,1001.86 1446.87,1003.84C1446.95,1002.27 1446.91,1000.72 1446.68,999.219C1445.9,994.14 1443.63,989.682 1441.12,985.294ZM1482.3,868.702C1477.26,879.707 1471.13,890.771 1469.39,893.307C1461.82,904.383 1451.96,914.939 1444.5,926.447C1437.16,937.782 1432.14,950.047 1434.12,964.704C1434.95,970.877 1437.87,976.091 1440.86,981.236C1446.99,966.732 1454.52,952.481 1457.24,939.659C1458.34,934.448 1459.61,924.135 1463.18,916.751C1465.7,911.53 1469.38,907.775 1474.76,907.846C1478.95,907.901 1481.65,909.235 1483.21,911.408C1484.76,913.546 1485.22,916.564 1484.81,920.181C1484.1,926.523 1480.73,934.798 1476.58,943.148C1470.44,955.506 1462.61,968.043 1459.5,974.612C1458.97,975.731 1458.58,976.668 1458.38,977.391C1458.33,977.549 1458.3,977.733 1458.27,977.89C1458.49,977.808 1458.78,977.688 1459.05,977.537C1470.79,970.849 1480.8,956.676 1486.79,941.007C1492.78,925.342 1494.75,908.163 1490.29,895.407C1487.63,887.806 1484.13,880.565 1482.86,872.53C1482.66,871.277 1482.47,869.999 1482.3,868.702ZM1487.02,844.963C1487,844.972 1486.98,844.983 1486.96,844.993C1486.88,845.047 1486.81,845.119 1486.73,845.201C1486.17,845.798 1485.74,846.803 1485.58,847.168C1483.64,851.659 1483.2,856.652 1483.43,861.631C1484.37,859.338 1485.21,857.126 1485.89,855.086C1486.99,851.785 1487.67,848.951 1487.65,846.975C1487.64,846.414 1487.58,845.933 1487.43,845.547C1487.34,845.294 1487.21,845.09 1487.02,844.963ZM1493.43,706.601C1492.39,706.7 1491.36,706.53 1490.41,706.011C1487.75,704.543 1487.12,701.933 1487.16,699.073C1487.2,696.609 1487.75,693.962 1487.44,691.968C1486.87,688.208 1484.09,685.916 1480.74,684.688C1477.24,683.405 1473.1,683.27 1469.96,683.928C1466.63,684.628 1462.56,687.162 1458.07,690.36C1451.13,695.304 1443.25,701.842 1435.65,706.085C1430.59,708.915 1425.64,710.708 1421.14,710.47C1420.9,723.013 1424.6,736.395 1432.23,746.321C1437.3,752.901 1442.58,756.831 1446.92,760.64C1447.49,761.142 1448.05,761.642 1448.59,762.145C1450.6,759.583 1453.06,757.509 1455.77,755.616C1455.38,753.885 1455.16,752.153 1455.09,750.553C1454.96,747.466 1455.42,742.525 1456.47,736.881C1455.17,737.047 1453.86,737.219 1452.57,737.367C1448.89,737.79 1445.36,738.018 1442.63,737.467C1440.61,737.061 1439,736.234 1437.96,734.85C1436.87,733.393 1436.38,731.28 1436.86,728.25C1437.88,721.788 1442.52,717.85 1448.52,715.164C1453.66,712.86 1459.81,711.489 1465.3,710.098C1465.85,709.081 1466.43,708.108 1467.03,707.186C1470.68,701.53 1475.18,697.792 1480.38,697.729C1482.1,697.709 1482.96,698.257 1483.33,698.889C1483.61,699.388 1483.66,700.021 1483.42,700.743C1483.05,701.86 1481.9,703.316 1480.55,704.667C1478.6,706.618 1476.27,708.37 1475.66,708.658C1473.18,709.823 1469.99,710.727 1466.53,711.612C1466.13,712.366 1465.75,713.141 1465.37,713.934C1462.36,720.357 1460.12,727.963 1458.7,734.8C1461.78,734.444 1464.72,734.211 1467.15,734.47C1470.2,734.795 1472.48,735.904 1473.48,738.206C1474.77,741.155 1474.05,743.726 1472.44,745.907C1470.95,747.921 1468.67,749.59 1466.63,750.885C1463.63,752.788 1460.6,754.493 1457.8,756.36C1458.4,758.607 1459.31,760.792 1460.56,762.572C1462.8,765.746 1466.17,767.563 1470.92,765.844C1477.09,763.606 1481.97,758.452 1485.62,752.155C1491.17,742.565 1493.87,730.313 1493.77,721.327C1493.76,721.047 1493.76,720.768 1493.75,720.489C1493.74,720.211 1493.72,719.933 1493.71,719.656C1493.45,714.991 1493.33,710.47 1493.43,706.601ZM1457.37,754.527C1460.02,752.784 1462.85,751.151 1465.66,749.365C1467.53,748.182 1469.63,746.678 1470.99,744.837C1472.23,743.162 1472.82,741.192 1471.83,738.927C1471.07,737.187 1469.27,736.505 1466.96,736.26C1464.49,735.997 1461.47,736.266 1458.33,736.647C1457.24,742.359 1456.75,747.374 1456.89,750.475C1456.94,751.76 1457.1,753.137 1457.37,754.527ZM1464.22,712.193C1459.21,713.44 1453.84,714.754 1449.26,716.806C1443.85,719.231 1439.56,722.699 1438.63,728.531C1438.26,730.928 1438.54,732.616 1439.4,733.769C1440.25,734.904 1441.64,735.481 1443.34,735.768C1445.87,736.198 1449.05,735.96 1452.37,735.578C1453.84,735.409 1455.34,735.212 1456.83,735.026C1458.34,727.557 1460.82,719.121 1464.22,712.193ZM1467.73,709.467C1470.43,708.74 1472.89,707.97 1474.89,707.029C1475.68,706.659 1479.59,703.549 1481.19,701.149C1481.43,700.803 1481.61,700.476 1481.71,700.177C1481.76,700.028 1481.8,699.898 1481.77,699.787C1481.73,699.69 1481.61,699.676 1481.46,699.634C1481.19,699.556 1480.84,699.524 1480.4,699.529C1477.34,699.566 1474.6,701.109 1472.14,703.592C1470.54,705.201 1469.07,707.202 1467.73,709.467ZM1423.78,688.236C1420.77,690.136 1417.72,692.319 1415.41,694.62C1411.99,698.022 1410.14,701.661 1413.32,704.956C1415.17,706.874 1417.22,707.976 1419.41,708.441C1419.43,708.071 1419.45,707.7 1419.47,707.33C1419.85,702.015 1421.06,694.626 1423.78,688.236ZM1495.31,704.194C1496.28,703.688 1497.17,702.931 1497.87,702.068C1499.4,700.16 1500.04,697.644 1497.71,696.38C1497.03,696.01 1496.7,696.619 1496.35,697.56C1495.8,699.051 1495.47,701.358 1495.31,704.194ZM1436.69,676.939C1436.6,676.959 1436.52,676.984 1436.43,677.013C1433.11,678.105 1430.49,680.444 1428.42,683.423C1430.58,682.224 1432.38,681.283 1433.42,680.689C1433.87,680.432 1434.93,679.374 1435.8,678.305C1436.13,677.895 1436.46,677.341 1436.69,676.939Z"/>
</g>
</svg>