<?xml version="1.0" ?><!-- Uploaded to: SVG Repo, www.svgrepo.com, Generator: SVG Repo Mixer Tools -->
<svg fill="#000000" width="800px" height="800px" viewBox="0 0 512 512" id="_x30_1" version="1.1" xml:space="preserve" xmlns="http://www.w3.org/2000/svg" xmlns:xlink="http://www.w3.org/1999/xlink"><path d="M452,0H60C26.863,0,0,26.863,0,60v320c0,33.137,26.863,60,60,60h117.296c6.687,0,12.932,3.342,16.641,8.906l30.969,46.453  C231.837,505.755,243.505,512,256,512s24.163-6.245,31.094-16.641l30.969-46.453c3.709-5.564,9.954-8.906,16.641-8.906H452  c33.137,0,60-26.863,60-60V60C512,26.863,485.137,0,452,0z M108,260c-22.091,0-40-17.909-40-40s17.909-40,40-40s40,17.909,40,40  S130.091,260,108,260z M256,260c-22.091,0-40-17.909-40-40s17.909-40,40-40s40,17.909,40,40S278.091,260,256,260z M404,260  c-22.091,0-40-17.909-40-40s17.909-40,40-40s40,17.909,40,40S426.091,260,404,260z"/></svg>