<?xml version="1.0" encoding="utf-8"?>
<!-- Uploaded to: SVG Repo, www.svgrepo.com, Generator: SVG Repo Mixer Tools -->
<svg width="800px" height="800px" viewBox="0 0 1024 1024" class="icon"  version="1.1" xmlns="http://www.w3.org/2000/svg"><path d="M280 691.2c-3.2 11.2-6.4 22.4-11.2 33.6-30.4 75.2-20.8 129.6 1.6 147.2 24 17.6 76.8 9.6 137.6-40-25.6-51.2-25.6-118.4-43.2-140.8 25.6 6.4 46.4 35.2 59.2 88 3.2 11.2 6.4 22.4 9.6 32 30.4-20.8 56-27.2 76.8-19.2-16 4.8-36.8 27.2-62.4 49.6 19.2 36.8 44.8 54.4 64 54.4 20.8 0 44.8-17.6 64-54.4-25.6-22.4-46.4-43.2-62.4-49.6 20.8-8 44.8-1.6 76.8 19.2 3.2-9.6 6.4-20.8 9.6-32 12.8-52.8 32-81.6 59.2-88-17.6 22.4-17.6 89.6-43.2 140.8 60.8 49.6 113.6 57.6 137.6 40s32-72 1.6-147.2c-4.8-12.8-8-24-11.2-33.6-35.2-3.2-65.6-9.6-81.6-3.2 11.2-19.2 38.4-28.8 76.8-28.8 0-16 3.2-28.8 11.2-40 0 9.6 4.8 24 11.2 40 80 4.8 129.6-19.2 139.2-48 6.4-19.2-3.2-48-32-78.4-41.6 38.4-102.4 59.2-118.4 81.6-1.6-27.2 20.8-54.4 65.6-83.2 11.2-6.4 20.8-12.8 28.8-20.8-8-6.4-17.6-14.4-28.8-20.8-46.4-28.8-67.2-56-65.6-83.2 16 22.4 76.8 43.2 118.4 81.6 28.8-30.4 38.4-59.2 32-78.4-9.6-27.2-59.2-52.8-139.2-48-6.4 16-11.2 30.4-11.2 40-8-9.6-12.8-22.4-11.2-40-40 0-65.6-9.6-76.8-28.8 17.6 6.4 48 0 81.6-3.2 3.2-11.2 6.4-22.4 11.2-33.6 30.4-75.2 20.8-129.6-1.6-147.2-24-17.6-76.8-9.6-137.6 40 25.6 51.2 25.6 118.4 43.2 140.8-25.6-6.4-46.4-35.2-59.2-88-3.2-11.2-6.4-22.4-9.6-32-30.4 20.8-56 27.2-76.8 19.2 16-4.8 36.8-27.2 62.4-49.6C556.8 145.6 532.8 128 512 128c-20.8 0-44.8 17.6-64 54.4 25.6 22.4 46.4 43.2 62.4 49.6-20.8 8-44.8 1.6-76.8-19.2-3.2 9.6-6.4 20.8-9.6 32-12.8 52.8-32 81.6-59.2 88 17.6-22.4 17.6-89.6 43.2-140.8-60.8-49.6-113.6-57.6-137.6-40s-32 72-1.6 147.2c4.8 12.8 8 24 11.2 33.6 35.2 3.2 65.6 9.6 81.6 3.2-11.2 19.2-38.4 28.8-76.8 28.8 0 16-3.2 28.8-11.2 40 0-9.6-4.8-24-11.2-40-80-4.8-129.6 19.2-139.2 48-6.4 19.2 3.2 48 32 78.4 41.6-38.4 102.4-59.2 118.4-81.6 1.6 27.2-20.8 54.4-65.6 83.2-11.2 6.4-20.8 12.8-28.8 20.8 8 6.4 17.6 14.4 28.8 20.8 46.4 28.8 67.2 56 65.6 83.2-16-22.4-76.8-43.2-118.4-81.6-28.8 30.4-38.4 59.2-32 78.4 9.6 27.2 59.2 52.8 139.2 48 6.4-16 11.2-30.4 11.2-40 8 9.6 12.8 22.4 11.2 40 40 0 65.6 9.6 76.8 28.8-16-9.6-48-3.2-81.6 0z m-35.2 1.6c-51.2 0-102.4-12.8-124.8-81.6-14.4-43.2-6.4-75.2 12.8-99.2-17.6-25.6-25.6-57.6-12.8-99.2 22.4-67.2 73.6-81.6 124.8-81.6-24-56-48-126.4 24-179.2 60.8-44.8 113.6-20.8 155.2 12.8C443.2 142.4 470.4 128 512 128s68.8 14.4 86.4 36.8c41.6-33.6 94.4-57.6 155.2-12.8 72 52.8 49.6 123.2 24 179.2 51.2 0 102.4 12.8 124.8 81.6 14.4 43.2 6.4 75.2-12.8 99.2 17.6 25.6 25.6 57.6 12.8 99.2-22.4 67.2-73.6 81.6-124.8 81.6 24 56 48 126.4-24 179.2-60.8 44.8-113.6 20.8-155.2-12.8-19.2 22.4-44.8 36.8-86.4 36.8s-68.8-14.4-86.4-36.8c-41.6 33.6-94.4 57.6-155.2 12.8-72-52.8-49.6-123.2-25.6-179.2z" fill="#050D42" /><path d="M472 374.4c-83.2 16-134.4 84.8-99.2 164.8 36.8 81.6 100.8 116.8 169.6 104 86.4-17.6 137.6-73.6 99.2-158.4-40-92.8-96-126.4-169.6-110.4z m3.2 14.4c65.6-12.8 113.6 14.4 152 99.2 33.6 73.6-9.6 120-88 137.6-60.8 12.8-118.4-19.2-152-94.4-30.4-68.8 14.4-126.4 88-142.4z" fill="#2F4BFF" /><path d="M240 683.2l-16-1.6 12.8-100.8 16 1.6-12.8 100.8z m-35.2-11.2h-16l-1.6-129.6h16l1.6 129.6z m-33.6-14.4l-16 1.6L137.6 528l16-1.6 17.6 131.2zM240 340.8l12.8 100.8-16 1.6-12.8-100.8 16-1.6z m-35.2 11.2l-1.6 129.6h-16l1.6-129.6h16z m-33.6 14.4l-17.6 131.2-16-1.6 17.6-131.2 16 1.6z m67.2 454.4l-9.6-12.8 142.4-110.4 9.6 12.8-142.4 110.4z m113.6 65.6l-12.8-9.6 62.4-89.6 12.8 9.6-62.4 89.6z m-102.4-142.4l-9.6-14.4 94.4-59.2 8 12.8-92.8 60.8z m20.8 128l-4.8-4.8 1.6-1.6 120-120 11.2 11.2-120 120c-3.2-1.6-6.4-3.2-8-4.8z m-32-668.8l142.4 110.4-9.6 12.8-142.4-110.4 9.6-12.8zM352 137.6l62.4 89.6-12.8 9.6-62.4-89.6 12.8-9.6z m-102.4 142.4l94.4 59.2-8 12.8-96-57.6 9.6-14.4z m20.8-128c1.6-1.6 4.8-3.2 8-4.8l120 120-11.2 11.2-120-120-1.6-1.6 4.8-4.8zM784 683.2l-12.8-100.8 16-1.6 12.8 100.8-16 1.6z m35.2-11.2l1.6-129.6h16l-1.6 129.6h-16z m33.6-14.4l17.6-131.2 16 1.6-17.6 131.2-16-1.6zM784 340.8l16 1.6-12.8 100.8-16-1.6 12.8-100.8z m35.2 11.2h16l1.6 129.6h-16l-1.6-129.6z m33.6 14.4l16-1.6 17.6 131.2-16 1.6-17.6-131.2z m-67.2 454.4l-142.4-110.4 9.6-12.8 142.4 110.4-9.6 12.8zM672 886.4l-62.4-89.6 12.8-9.6 62.4 89.6-12.8 9.6z m102.4-142.4l-94.4-59.2 8-12.8 94.4 59.2-8 12.8z m-20.8 128c-1.6 1.6-4.8 3.2-8 4.8l-120-120 11.2-11.2 120 120 1.6 1.6-4.8 4.8z m32-668.8l9.6 12.8-142.4 110.4-9.6-12.8 142.4-110.4zM672 137.6l12.8 9.6-62.4 89.6-12.8-9.6L672 137.6z m102.4 142.4l8 12.8L688 352l-8-12.8 94.4-59.2z m-20.8-128l4.8 4.8-1.6 1.6-120 120-11.2-11.2 120-120c3.2 1.6 6.4 3.2 8 4.8zM457.6 812.8l16-1.6 8 72-16 1.6-8-72z m65.6-16l14.4-8 41.6 73.6-14.4 8-41.6-73.6z m-38.4 3.2l14.4-6.4 40 94.4-14.4 6.4-40-94.4z m-27.2-588.8l8-72 16 1.6-8 72-16-1.6z m65.6 16l41.6-73.6 14.4 8-41.6 73.6-14.4-8z m-38.4-3.2l40-94.4 14.4 6.4-40 94.4-14.4-6.4z" fill="#050D42" /><path d="M537.6 393.6c-56-11.2-102.4 11.2-139.2 94.4s28.8 120 80 131.2 107.2-19.2 140.8-94.4c33.6-76.8-25.6-120-81.6-131.2z" fill="#2F4BFF" /></svg>