<?xml version="1.0" encoding="iso-8859-1"?>
<!-- Uploaded to: SVG Repo, www.svgrepo.com, Generator: SVG Repo Mixer Tools -->
<svg width="40px" height="80px"  version="1.1" id="Layer_1" xmlns="http://www.w3.org/2000/svg" xmlns:xlink="http://www.w3.org/1999/xlink" 
	 viewBox="0 0 512 512" xml:space="preserve">
<polygon style="fill:#B4B4B4;" points="435.298,32.603 256,32.603 235.102,272.301 256,512 435.298,512 "/>
<rect x="76.706" y="32.601" style="fill:#E0E0E0;" width="179.294" height="479.399"/>
<g>
	<rect x="150.183" y="103.424" style="fill:#707070;" width="211.634" height="31.347"/>
	<rect x="150.674" y="161.061" style="fill:#707070;" width="31.347" height="308.987"/>
	<rect x="240.327" y="161.061" style="fill:#707070;" width="31.347" height="308.987"/>
	<rect x="329.979" y="161.061" style="fill:#707070;" width="31.347" height="308.987"/>
</g>
<polygon style="fill:#424242;" points="446.794,0 256,0 235.102,32.603 256,65.206 446.794,65.206 "/>
<rect x="65.202" style="fill:#707070;" width="190.798" height="65.202"/>
<path style="fill:#B4B4B4;" d="M65.206,0L44.308,65.206l20.898,65.206c36.012,0,65.206-29.193,65.206-65.206
	C130.411,29.193,101.217,0,65.206,0z"/>
<path style="fill:#E0E0E0;" d="M0,65.206c0,36.012,29.193,65.206,65.206,65.206V0C29.193,0,0,29.193,0,65.206z"/>
<path style="fill:#424242;" d="M65.206,40.774L54.757,65.206l10.449,24.432c13.493,0,24.432-10.938,24.432-24.432
	C89.637,51.712,78.699,40.774,65.206,40.774z"/>
<path style="fill:#707070;" d="M40.774,65.206c0,13.493,10.938,24.432,24.432,24.432V40.774
	C51.712,40.774,40.774,51.712,40.774,65.206z"/>
<path style="fill:#B4B4B4;" d="M446.794,0l-20.898,65.206l20.898,65.206c36.012,0,65.206-29.193,65.206-65.206S482.807,0,446.794,0z
	"/>
<path style="fill:#E0E0E0;" d="M381.589,65.206c0,36.012,29.193,65.206,65.206,65.206V0C410.783,0,381.589,29.193,381.589,65.206z"
	/>
<path style="fill:#424242;" d="M446.794,40.774l-10.449,24.432l10.449,24.432c13.493,0,24.432-10.938,24.432-24.432
	S460.288,40.774,446.794,40.774z"/>
<path style="fill:#707070;" d="M422.363,65.206c0,13.493,10.938,24.432,24.432,24.432V40.774
	C433.301,40.774,422.363,51.712,422.363,65.206z"/>
</svg>