<?xml version="1.0" encoding="utf-8"?>
<!-- Uploaded to: SVG Repo, www.svgrepo.com, Generator: SVG Repo Mixer Tools -->
<svg fill="#000000" width="800px" height="800px" viewBox="0 0 32 32" version="1.1" xmlns="http://www.w3.org/2000/svg">
<title>open-eye</title>
<path d="M0 16q0.064 0.192 0.192 0.512t0.576 1.248 0.992 1.888 1.344 2.176 1.792 2.368 2.144 2.176 2.592 1.888 2.976 1.248 3.392 0.512q2.208 0 4.288-0.768t3.616-2.016 2.912-2.72 2.304-3.008 1.6-2.72 0.96-1.984l0.32-0.8q-0.064-0.16-0.192-0.48t-0.576-1.28-0.992-1.856-1.344-2.208-1.792-2.336-2.144-2.176-2.56-1.888-3.008-1.28-3.392-0.48q-2.208 0-4.288 0.768t-3.616 2.016-2.912 2.72-2.304 2.976-1.6 2.72-0.96 2.016zM6.016 16q0-2.72 1.344-5.024t3.616-3.616 5.024-1.344q2.048 0 3.872 0.8t3.2 2.112 2.144 3.2 0.8 3.872q0 2.72-1.344 5.024t-3.648 3.648-5.024 1.344q-2.016 0-3.872-0.8t-3.2-2.144-2.144-3.168-0.768-3.904zM10.016 16q0 2.496 1.728 4.256t4.256 1.76 4.256-1.76 1.76-4.256-1.76-4.224-4.256-1.76q-0.96 0-1.984 0.352v3.648h-3.648q-0.352 0.992-0.352 1.984z"></path>
</svg>