<?xml version="1.0" ?>
<!-- Uploaded to: SVG Repo, www.svgrepo.com, Generator: SVG Repo Mixer Tools -->
<svg fill="#000000" width="800px" height="800px" viewBox="0 0 512 512" id="_x30_1" version="1.1" xml:space="preserve" xmlns="http://www.w3.org/2000/svg" xmlns:xlink="http://www.w3.org/1999/xlink">
<g>
<circle cx="292" cy="180" r="60"/>
<path d="M452,0H60C26.863,0,0,26.863,0,60v392c0,33.137,26.863,60,60,60h392c33.137,0,60-26.863,60-60V60   C512,26.863,485.137,0,452,0z M432,303.495l-26.462-28.774C396.91,265.339,384.746,260,372,260s-24.91,5.339-33.538,14.721   l-54.872,59.667L173.538,214.721C164.91,205.339,152.746,200,140,200s-24.91,5.339-33.538,14.721L80,243.495V100   c0-11.046,8.954-20,20-20h312c11.046,0,20,8.954,20,20V303.495z"/>
</g>
</svg>