<?xml version="1.0" ?><!-- Uploaded to: SVG Repo, www.svgrepo.com, Generator: SVG Repo Mixer Tools -->
<svg fill="#000000" width="800px" height="800px" viewBox="0 0 512 512" id="_x30_1" version="1.1" xml:space="preserve" xmlns="http://www.w3.org/2000/svg" xmlns:xlink="http://www.w3.org/1999/xlink"><path d="M416,172h-40v-52C376,53.726,322.274,0,256,0h0c-66.274,0-120,53.726-120,120v52H96c-33.137,0-60,26.863-60,60v220  c0,33.137,26.863,60,60,60h320c33.137,0,60-26.863,60-60V232C476,198.863,449.137,172,416,172z M196,120c0-33.137,26.863-60,60-60  l0,0c33.137,0,60,26.863,60,60v52H196V120z M286,363.953V402c0,16.569-13.431,30-30,30l0,0c-16.569,0-30-13.431-30-30v-38.047  c-18.289-10.584-30.483-30.531-29.985-53.295c0.701-32.067,27.03-58.19,59.102-58.652C288.658,251.524,316,278.569,316,312  C316,334.204,303.929,353.578,286,363.953z"/></svg>