<?xml version="1.0" encoding="utf-8"?>
<!-- Uploaded to: SVG Repo, www.svgrepo.com, Generator: SVG Repo Mixer Tools -->
<svg width="40px" height="80px" viewBox="0 0 1024 1024" class="icon"  version="1.1" xmlns="http://www.w3.org/2000/svg"><path d="M566.784 666.624l213.504 113.664c49.664-34.304 108.032-94.208 146.432-197.12 1.024-2.048 1.536-4.608 2.56-6.656l-362.496 90.112z m-29.184-25.6v-4.096c-5.12-197.12-12.288-491.008 28.672-590.848-27.648 0.512-94.208 4.096-165.888 32.256-68.096 26.624-122.88 67.584-164.352 121.344L537.6 641.024z m4.096 153.088c-1.024-12.288-1.536-25.6-2.048-38.912 0-21.504-0.512-48.64-1.536-78.848L336.896 793.6c35.84 21.504 104.448 53.76 168.96 32.256 9.728-3.072 18.432-9.216 24.576-17.92l11.264-13.824z m-380.928-431.104c0 0.512-18.432 65.536-8.704 148.48 2.56 20.48 6.144 39.936 11.264 58.88L522.24 650.24l-296.96-435.2c-29.184 41.984-50.688 91.136-64.512 147.968z m774.656 193.536c29.184-106.496 6.144-232.448-63.488-336.384-5.632-8.704-11.776-16.384-17.92-24.576l-292.352 453.632 373.76-92.672z m-380.416 71.168l287.744-446.464c-68.608-81.92-160.256-130.048-257.024-134.656-42.496 86.016-35.328 391.68-30.72 581.12z m2.56 126.976c0 15.36 1.024 30.208 2.56 44.032 4.608 8.192 18.944 27.136 52.736 34.304 21.504 4.608 79.36-1.024 141.824-36.352 3.072-1.536 6.144-3.584 9.728-5.632L556.032 680.96c1.024 28.16 1.536 53.248 1.536 73.728z m386.048-165.376c-41.984 113.152-107.52 176.64-161.28 211.456v0.512c-6.656 4.096-12.8 8.192-18.944 11.264-53.248 30.208-103.424 39.936-134.144 39.936-8.192 0-14.848-0.512-19.968-1.536-19.968-4.096-34.304-12.288-44.544-20.48 18.944 104.96 71.168 151.552 71.68 152.576l-11.776 13.312c-3.072-2.56-62.464-55.296-79.872-176.128-8.704 11.264-19.968 18.944-32.768 23.552-16.896 5.632-34.304 7.68-50.688 7.68-81.92 0-154.112-55.808-159.744-60.416-68.096-47.616-109.568-104.448-134.144-159.232l15.36-7.68c27.136 59.904 70.144 111.104 129.024 152.064l0.512 0.512s3.072 2.56 8.704 6.144l198.144-115.2L168.96 589.312l-16.384 5.12c-9.728-29.184-15.36-57.344-17.92-82.432-9.728-84.992 8.192-149.504 9.216-154.112 44.544-180.736 160.768-261.12 250.88-295.936 96.256-37.888 180.736-33.28 185.856-33.28 119.296 3.584 230.912 70.144 306.176 181.76 78.336 117.248 100.352 262.144 56.832 378.88z" fill="#056137" /><path d="M182.272 623.616l-15.36 7.68c-5.632-12.288-10.24-24.576-14.336-36.352l16.384-5.12c4.096 11.264 8.704 22.528 13.312 33.792z" fill="#056137" /><path d="M556.032 680.96l207.36 110.08c-3.072 2.048-6.656 4.096-9.728 5.632-62.464 35.328-120.32 40.96-141.824 36.352-33.792-7.168-47.616-26.112-52.736-34.304-1.536-13.824-2.048-28.16-2.56-44.032 1.024-20.48 0.512-45.568-0.512-73.728zM400.384 78.848c71.68-28.16 138.24-32.256 165.888-32.256-40.96 99.84-33.792 393.216-28.672 590.848v4.096l-301.568-440.832c41.472-54.784 96.256-95.232 164.352-121.856zM225.28 215.04l296.96 435.2-358.912-79.872c-5.12-18.944-8.704-38.4-11.264-58.88-9.728-82.944 8.704-147.456 8.704-148.48v-0.512c13.824-56.32 35.328-105.472 64.512-147.456zM539.648 754.688c0 13.824 0.512 26.624 2.048 38.912l-10.752 13.824c-6.656 8.704-15.36 14.848-24.576 17.92-64.512 20.992-133.12-10.752-168.96-32.256L538.624 675.84c0.512 30.72 1.024 57.344 1.024 78.848zM871.936 220.672c69.632 103.424 93.184 229.888 63.488 336.384l-373.248 92.672 292.352-453.632c5.632 7.68 11.776 15.872 17.408 24.576zM518.656 667.136l-198.144 115.2c-5.632-3.584-8.704-6.144-8.704-6.144l-0.512-0.512c-58.88-41.472-101.888-92.16-129.024-152.064-5.12-11.264-9.216-22.528-13.312-34.304l349.696 77.824zM929.28 576.512c-1.024 2.048-1.536 4.608-2.56 6.656-38.4 102.912-96.768 162.816-146.432 197.12l-213.504-113.664 362.496-90.112z" fill="#3B9548" /><path d="M585.216 46.592c96.768 4.608 188.416 52.736 257.024 134.656l-287.744 446.464c-4.096-189.44-11.264-495.104 30.72-581.12z" fill="#3B9548" /></svg>