<?xml version="1.0" ?><!-- Uploaded to: SVG Repo, www.svgrepo.com, Generator: SVG Repo Mixer Tools -->
<svg fill="rgb(189,23,189)" width="32px" height="32px" viewBox="0 0 512 512" id="_x30_1" version="1.1" xml:space="preserve" xmlns="http://www.w3.org/2000/svg" xmlns:xlink="http://www.w3.org/1999/xlink"><path d="M403.276,292.007c-32.686-0.37-62.134,13.519-82.514,35.832l-102.677-51.338C219.337,269.858,220,263.007,220,256  s-0.663-13.858-1.915-20.501l102.677-51.338c20.38,22.313,49.828,36.203,82.514,35.832c59.44-0.674,107.988-49.175,108.716-108.615  C512.741,50.156,463.469,0.262,402.48,0.001c-59.789-0.256-108.448,46.57-110.42,106.326c-0.274,8.288,0.384,16.375,1.855,24.174  L191.239,181.84c-20.372-22.304-49.805-36.192-82.476-35.833C49.388,146.66,0.836,195.062,0.011,254.435  C-0.844,315.903,48.728,366,110,366c32.176,0,61.124-13.817,81.239-35.84l102.677,51.338c-1.47,7.799-2.128,15.886-1.855,24.174  c1.972,59.757,50.631,106.582,110.42,106.326c60.988-0.261,110.26-50.155,109.511-111.377  C511.264,341.182,462.716,292.681,403.276,292.007z"/></svg>