<svg id="visual" viewBox="0 0 900 600" width="900" height="600" xmlns="http://www.w3.org/2000/svg" xmlns:xlink="http://www.w3.org/1999/xlink" version="1.1"><rect width="900" height="600" fill="#CCCCCC"></rect><g><g transform="translate(210 270)"><path d="M0 -135.3L105.8 -84.4L131.9 30.1L58.7 121.9L-58.7 121.9L-131.9 30.1L-105.8 -84.4Z" fill="#F7770F"></path></g><g transform="translate(491 477)"><path d="M0 -96L75.1 -59.9L93.6 21.4L41.7 86.5L-41.7 86.5L-93.6 21.4L-75.1 -59.9Z" fill="#F7770F"></path></g><g transform="translate(842 452)"><path d="M0 -113L88.3 -70.5L110.2 25.1L49 101.8L-49 101.8L-110.2 25.1L-88.3 -70.5Z" fill="#F7770F"></path></g><g transform="translate(91 530)"><path d="M0 -129L100.9 -80.4L125.8 28.7L56 116.2L-56 116.2L-125.8 28.7L-100.9 -80.4Z" fill="#F7770F"></path></g></g></svg>