<?xml version="1.0" encoding="utf-8"?>
<!-- Uploaded to: SVG Repo, www.svgrepo.com, Generator: SVG Repo Mixer Tools -->
<svg width="800px" height="800px" viewBox="0 0 1024 1024" class="icon"  version="1.1" xmlns="http://www.w3.org/2000/svg"><path d="M498.176 207.872c17.92 31.232 30.208 66.56 26.624 102.912-59.392-22.016-103.424-63.488-148.48-105.984-45.056-42.496-89.6-84.992-134.656-127.488 65.536-3.072 137.216-2.56 188.928 43.52 27.136 24.064 49.664 55.296 67.584 87.04zM842.24 464.384c22.528 30.208 55.808 59.904 66.048 97.28-6.144-1.024-12.288-3.072-18.432-4.096-10.24-1.536-20.48-2.048-30.72-5.12-19.456-6.144-37.376-15.872-54.272-27.136-31.744-20.48-58.368-45.568-82.432-74.752-46.592-55.808-115.712-89.6-181.76-118.784 0.512-1.536 1.536-2.56 2.56-4.096 11.776-5.12 29.184-5.632 40.448-6.144 18.944-0.512 37.376 1.536 55.808 5.632 40.448 8.704 84.992 20.48 119.296 44.544 34.304 24.064 58.368 58.88 83.456 92.672zM539.648 405.504l4.608 177.152 7.68 300.544 1.536 62.976h-21.504c0-125.44-0.512-251.392-1.024-376.832v-156.16c0.512-0.512 1.024-0.512 1.024-1.024 2.56-3.072 5.12-4.608 7.68-6.656zM492.544 326.144c-29.696 0.512-57.856 4.096-86.528 15.872-23.04 9.728-46.592 15.36-70.656 19.968-1.536-0.512-3.072-0.512-4.608 0.512-0.512 0-1.024 0.512-1.536 0.512-15.36 2.56-31.232 4.608-46.592 6.656-43.008 5.12-86.016 9.728-129.536 9.728-22.016 0-44.544-1.024-66.56-3.584-20.992-2.56-43.52-6.144-63.488-13.824 13.824-27.136 32.256-51.712 56.32-70.656 29.696-23.04 64.512-29.696 101.376-31.744 38.4-2.048 77.312 0 115.712 4.608 39.424 4.608 75.776 12.288 111.616 29.696 27.648 13.312 55.296 24.576 84.48 32.256z" fill="#3B9548" /><path d="M605.696 377.856c3.072 20.48-12.288 36.352-33.792 31.232-9.728-2.048-18.432-8.704-20.992-18.944-2.048-9.728 4.096-26.112 13.824-29.696 1.536-0.512 2.048-1.536 3.072-2.56 12.8 6.144 25.6 12.8 37.888 19.968z" fill="#CF9017" /><path d="M996.864 143.36c-15.36 6.144-30.72 11.264-47.616 12.288-19.456 1.024-38.4 0.512-57.856 2.56-38.912 4.096-77.312 9.728-115.712 14.336-34.816 4.608-69.12 7.168-100.864 23.552-29.184 14.848-56.32 35.328-80.384 57.344-10.752 9.728-20.992 19.968-30.72 30.208-4.096 3.072-7.68 6.144-11.264 9.216 23.04-57.344 42.496-118.784 89.6-160.768 62.976-56.32 153.088-35.84 227.84-22.016 43.008 8.704 86.016 18.944 126.976 33.28z" fill="#3B9548" /><path d="M890.88 299.008c19.968 16.896 32.768 39.936 51.2 57.344-24.576-2.56-49.664 0.512-74.24-1.536-19.456-1.536-34.816-8.704-51.2-18.432-13.824-8.192-27.136-15.36-42.496-18.944-16.896-3.584-33.792-4.096-50.688-6.144-19.456-2.56-38.912-5.12-57.856-7.68-32.768-4.096-66.56-8.192-99.328-4.608 2.048-2.048 4.096-4.608 6.144-6.656 21.504-15.872 49.152-24.064 75.264-28.672 43.008-7.68 87.04-7.168 130.56-3.584 39.424 3.584 81.408 12.288 112.64 38.912z" fill="#3B9548" /><path d="M544.256 582.656c-1.536-58.88-3.072-117.76-4.608-177.152l-7.68 6.144c-0.512 0.512-1.024 0.512-1.024 1.024v156.16c0 125.44 1.024 251.392 1.024 376.832h21.504l-1.536-62.976-7.68-300.032z m27.648-173.568c21.504 5.12 36.864-10.752 33.792-31.232-12.288-6.656-25.088-13.312-37.888-19.456-0.512 1.024-1.536 2.048-3.072 2.56-9.728 3.584-15.872 19.968-13.824 29.696 2.56 9.728 11.264 15.872 20.992 18.432z m205.824-148.992c-43.008-3.584-87.552-4.096-130.56 3.584-26.112 4.608-53.248 12.8-75.264 28.672-2.048 2.048-4.096 4.608-6.144 6.656 32.768-3.584 66.56 0.512 99.328 4.608 19.456 2.56 38.4 5.632 57.856 7.68 16.896 2.048 33.792 2.56 50.688 6.144 15.872 3.072 29.184 10.752 42.496 18.944 16.384 9.728 32.256 16.896 51.2 18.432 24.576 2.048 49.664-1.024 74.24 1.536-18.944-16.896-31.744-39.936-51.2-57.344-30.72-26.624-72.704-35.328-112.64-38.912z m-102.4-64c31.744-16.384 66.048-18.944 100.864-23.552 38.4-5.12 77.312-10.752 115.712-14.336 19.456-2.048 38.4-1.536 57.856-2.56 16.896-1.024 32.256-6.144 47.616-12.288-41.472-14.336-83.968-24.576-126.976-32.768-74.752-14.336-165.376-34.304-227.84 22.016-47.104 41.984-66.048 103.424-89.6 160.768 3.584-3.584 7.168-6.656 11.264-9.216 9.728-10.752 19.968-20.48 30.72-30.208 24.064-22.016 51.2-42.496 80.384-57.856z m82.944 175.616c-34.304-23.552-78.848-35.84-119.296-44.544-18.432-3.584-36.864-6.144-55.808-5.632-10.752 0.512-28.672 0.512-40.448 6.144-1.024 1.536-1.536 2.56-2.56 4.096C606.208 360.96 674.816 395.264 721.92 450.56c24.064 28.672 50.688 54.272 82.432 74.752 16.896 10.752 34.816 20.992 54.272 27.136 10.24 3.072 19.968 3.584 30.72 5.12 6.656 1.024 12.288 3.072 18.432 4.096-10.24-37.376-43.52-67.072-66.048-97.28-24.576-33.792-48.64-68.608-83.456-92.672z m-327.68-250.88c-51.712-46.08-123.392-46.592-188.928-43.52 45.056 42.496 89.6 84.992 134.656 127.488 45.056 43.008 89.6 84.48 148.48 105.984 3.072-36.352-9.216-71.68-26.624-102.912-17.92-31.744-40.448-62.976-67.584-87.04zM526.336 348.16c-5.632 1.024-10.752 3.072-15.36 5.12 9.216 1.536 18.432 6.144 24.576 13.824 2.048 2.56 3.584 5.632 4.096 9.216 1.536-9.728 6.656-18.944 15.872-24.576l-19.968-9.216c-1.536 2.56-3.584 3.072-6.144 3.072 0 1.536-1.024 2.56-3.072 2.56zM243.712 448.512c-14.848 21.504-22.016 44.544-22.528 70.144-0.512 20.48 1.024 41.472 0.512 61.952 16.896-19.968 38.912-34.816 60.416-49.664 31.744-21.504 63.488-42.496 94.72-64.512 30.208-21.504 57.856-44.544 79.872-74.752 5.12-6.656 10.24-13.824 15.872-20.48 0.512-1.536 1.536-2.56 2.048-3.584 1.024-1.024 2.048-1.536 2.56-2.048 11.776-12.288 25.088-23.04 41.984-27.648-19.456-1.024-39.424-1.024-58.88 1.024-22.016 2.56-41.984 10.752-62.464 18.944-21.504 8.704-44.032 13.312-66.56 16.896-33.792 18.432-66.048 41.472-87.552 73.728z m248.32-45.568c6.656 2.56 23.04 5.632 29.696 1.536 0.512-0.512 1.024-0.512 1.536-1.024 3.584-3.584 5.12-13.824 5.632-17.92 0.512-6.656-2.56-11.264-7.68-14.848-8.704-6.144-19.456-6.656-29.184-3.072l-9.216 9.216c0 2.048-0.512 7.68-1.024 8.704-0.512 7.68 2.56 14.336 10.24 17.408z m-405.504-27.648c22.016 3.072 44.544 4.096 66.56 3.584 43.008 0 86.528-4.608 129.536-9.728 15.872-2.048 31.232-4.096 46.592-6.656 0.512 0 1.024-0.512 1.536-0.512 1.536-1.024 3.072-1.024 4.608-0.512 24.064-4.096 47.616-10.24 70.656-19.968 28.672-11.776 56.832-15.36 86.528-15.872-29.184-7.68-57.344-18.944-84.992-32.256-35.84-17.408-71.68-25.088-111.616-29.696-38.4-4.608-77.312-6.656-115.712-4.608-36.864 2.048-71.68 8.704-101.376 31.744-24.064 18.944-42.496 43.52-56.32 70.656 20.48 7.68 43.008 11.264 64 13.824zM10.24 360.96c16.384-32.768 38.912-63.488 69.632-84.48 29.184-20.48 63.488-26.624 98.816-28.672 41.472-2.56 83.456 0 124.928 5.12 18.944 2.56 38.4 4.608 57.344 9.728 18.944 4.608 36.352 12.288 53.248 20.992 32.256 15.872 64.512 27.648 99.328 35.328-53.76-22.016-95.744-59.392-138.24-99.328-49.664-47.104-99.84-94.208-149.504-141.824-0.512-0.512-1.024-1.024-1.024-1.536-3.072-3.072-1.536-9.728 4.096-10.24 74.24-4.096 155.648-5.12 213.504 48.64 28.16 26.112 52.224 59.904 70.144 94.208 15.36 28.672 25.088 59.904 25.088 92.16 15.36-35.328 27.136-72.192 45.056-107.008 16.384-31.744 37.888-61.44 67.072-82.432 31.232-22.016 69.12-29.184 107.008-28.672 41.984 1.024 84.48 9.216 125.952 17.408 44.544 8.704 88.576 19.968 131.072 35.328 5.632 2.048 4.608 9.728 1.024 11.264-0.512 0.512-1.024 1.024-2.048 1.536-19.456 8.704-38.912 16.384-59.904 17.408-22.016 1.536-44.544 0.512-66.56 3.072-48.64 5.632-97.28 11.776-145.408 18.432-22.016 3.072-42.496 8.704-61.952 19.456-19.968 10.752-38.4 24.064-56.32 37.888-7.168 5.632-14.336 11.776-20.992 17.92 9.728-3.584 19.456-6.656 29.696-9.216 44.032-10.24 90.112-10.752 135.168-7.68 40.448 2.56 82.944 9.216 117.76 31.232 15.872 10.24 28.672 23.552 40.448 38.912 13.824 17.408 27.136 35.84 48.64 44.032 6.656 2.56 4.096 13.312-2.56 11.264-1.024 0.512-2.56 1.024-4.096 0-32.768-11.776-67.584-3.584-101.376-7.68-14.336-1.536-27.648-5.12-39.936-11.776-14.848-8.192-28.672-18.432-45.056-23.552-17.92-5.12-37.376-5.632-55.808-7.68-16.896-2.048-33.792-4.608-50.688-6.656-37.888-5.12-77.824-10.752-115.712-4.096h-2.048c-0.512 0.512-1.024 1.024-1.024 1.536 3.584-0.512 7.168-1.024 10.24-1.536 16.384-2.56 32.768-2.56 49.152-0.512 36.864 4.096 72.192 15.36 107.008 28.16 30.72 11.264 56.832 28.672 79.36 52.224 26.112 27.136 46.592 59.392 70.144 89.088 20.48 25.6 44.544 50.176 51.2 82.944v3.072c0.512 3.072-1.536 6.656-5.632 6.656-10.24 0.512-18.944-3.584-28.672-4.608-9.216-1.024-17.408-1.536-26.624-4.096-17.92-5.12-34.816-13.312-50.688-23.04-31.744-18.432-60.416-42.496-84.48-70.144-12.8-14.848-24.576-30.208-39.424-43.008-15.36-13.312-32.768-24.576-50.176-34.816-5.632-3.584-11.776-6.656-17.408-10.24-1.024 27.136-27.136 45.056-54.784 33.792-4.608-1.536-8.192-4.096-11.264-7.168 0.512 16.896 1.024 33.792 1.536 51.2l7.68 300.544c1.536 62.976 3.072 125.952 5.12 188.928 0 3.072-3.072 5.632-6.144 5.632H527.36c-3.072 0-5.632-2.56-5.632-5.632V789.504c-0.512-124.928-1.024-249.344-1.024-374.272-13.312 2.56-31.744-2.048-39.936-9.216-4.096-3.584-7.168-9.728-8.704-16.384-5.12 6.656-9.728 13.312-14.848 19.456-19.456 24.576-44.544 44.032-70.144 62.464-29.184 20.48-58.88 40.448-88.576 60.416-27.648 18.432-57.344 36.864-75.776 65.024-3.072 5.12-10.24 2.56-11.264-2.048-1.024-1.024-2.048-2.56-1.536-4.608 2.56-28.16-2.048-56.832 0.512-84.992 2.048-24.064 10.24-45.568 23.552-65.536 17.92-26.112 41.472-46.592 67.584-63.488l-27.648 3.072c-44.544 5.12-89.088 9.728-133.632 8.704-41.984-1.024-89.6-4.096-128.512-21.504-4.608 1.024-4.096-3.072-1.536-5.632z" fill="#056137" /><path d="M521.216 370.176c5.12 3.584 8.192 8.704 7.68 14.848-0.512 4.608-2.048 14.336-5.632 17.92-0.512 0.512-1.024 0.512-1.536 1.024-7.168 4.096-23.04 1.536-29.696-1.536-8.192-3.072-10.752-9.728-10.24-17.92 0.512-1.024 1.024-6.656 1.024-8.704 3.072-3.072 5.632-6.656 9.216-9.216 9.728-3.072 20.48-3.072 29.184 3.584z" fill="#CF9017" /><path d="M519.168 337.92c-16.896 4.608-30.208 14.848-41.984 27.648-1.024 0.512-2.048 1.024-2.56 2.048-1.024 1.024-1.536 2.56-2.048 3.584-5.632 6.656-10.752 13.824-15.872 20.48-22.016 30.208-49.152 53.248-79.872 74.752-31.232 22.016-62.976 43.008-94.72 64.512-21.504 14.848-43.52 29.696-60.416 49.664 0.512-20.48-1.536-41.472-0.512-61.952 1.024-26.112 8.192-49.152 22.528-70.144 22.016-32.256 53.76-55.296 88.064-73.216 22.528-3.584 45.056-8.192 66.56-16.896 20.48-8.192 40.448-16.384 62.464-18.944 18.944-2.56 38.912-2.048 58.368-1.536z" fill="#3B9548" /></svg>